<svg xmlns="http://www.w3.org/2000/svg" width="100%" height="100%" xmlns:xlink="http://www.w3.org/1999/xlink" viewBox="0 0 1080 650" preserveAspectRatio="xMinYMin meet" xmlns:drawsvg="http://www.drawsvg.org" style=""><path id="svgEditorBackground" width="1080" height="650" style="fill: none; stroke: none;" d="M0 0 L1080 0 L1080 650 L0 650 Z" class="ThLyuuKb_0"></path><path style="fill:none;stroke:#c09c9f;stroke-width:3px" id="e4_path" d="M61.87,176.84a155.06,155.06,0,0,1,0,0" class="ThLyuuKb_1"></path><text dy="-0.5em" style="fill:black;font-family:Arial;font-size:20px" id="e9_text"></text><path id="e10_circle" style="fill:none;stroke:#c09c9f;stroke-width:2px" d="M482.95799999999997,323.196A150,150 0,1,1 782.958,323.196A150,150 0,1,1 482.95799999999997,323.196" class="ThLyuuKb_2"></path><g drawsvg:ctype="layer" id="Second_Circle"><path style="fill:none;stroke:#c09c9f;stroke-width:2px" id="e3_path" d="M486.58,171.89a215.38,215.38,0,0,1,152.3,-63.08" class="ThLyuuKb_3"></path><path style="fill:none;stroke:#c09c9f;stroke-width:2px" id="e5_path" d="M853.148001,324.19a215.38,215.38,0,0,1,-63.083341,152.296659" class="ThLyuuKb_4"></path><path style="fill:none;stroke:#c09c9f;stroke-width:2px" id="e7_path" d="M637.768001,541.793996a215.38,215.38,0,0,1,-82.422358,-16.394826a215.38,215.38,0,0,1,-37.236359,-19.903249" class="ThLyuuKb_5"></path><path style="fill:none;stroke:#c09c9f;stroke-width:2px" id="e22_path" d="M249.634,327.516a385.91,385.91,0,0,1,0.465,-18.936a385.91,385.91,0,0,1,1.393,-18.89a385.91,385.91,0,0,1,5.557,-37.462a385.91,385.91,0,0,1,21.96,-72.394a385.91,385.91,0,0,1,83.655,-125.198" class="ThLyuuKb_6"></path><path style="fill:none;stroke:#c09c9f;stroke-width:1.5px" id="e9_path" d="M1021.454,327.516a385.91,385.91,0,0,1,-385.91,385.91" class="ThLyuuKb_7"></path><path style="fill:none;stroke:#c09c9f;stroke-width:1px" id="e8_path" d="M642.41,-187.42a510.79,510.79,0,0,1,361.18,149.61a510.79,510.79,0,0,1,110.73,165.71a510.79,510.79,0,0,1,38.88,195.47" class="ThLyuuKb_8"></path><path style="fill:none;stroke:#c09c9f;stroke-width:1.5px" id="e2_path" d="M642.41,834.16a510.79,510.79,0,0,1,-361.18,-149.61a510.79,510.79,0,0,1,-110.73,-165.71" class="ThLyuuKb_9"></path></g><g drawsvg:ctype="layer" id="Third_Circle"></g><style data-made-with="vivus-instant">.ThLyuuKb_0{stroke-dasharray:3460 3462;stroke-dashoffset:3461;animation:ThLyuuKb_draw 3000ms linear 0ms forwards;}.ThLyuuKb_1{stroke-dasharray:0 2;stroke-dashoffset:1;animation:ThLyuuKb_draw 3000ms linear 0ms forwards;}.ThLyuuKb_2{stroke-dasharray:943 945;stroke-dashoffset:944;animation:ThLyuuKb_draw 3000ms linear 0ms forwards;}.ThLyuuKb_3{stroke-dasharray:170 172;stroke-dashoffset:171;animation:ThLyuuKb_draw 3000ms linear 0ms forwards;}.ThLyuuKb_4{stroke-dasharray:170 172;stroke-dashoffset:171;animation:ThLyuuKb_draw 3000ms linear 0ms forwards;}.ThLyuuKb_5{stroke-dasharray:127 129;stroke-dashoffset:128;animation:ThLyuuKb_draw 3000ms linear 0ms forwards;}.ThLyuuKb_6{stroke-dasharray:304 306;stroke-dashoffset:305;animation:ThLyuuKb_draw 3000ms linear 0ms forwards;}.ThLyuuKb_7{stroke-dasharray:607 609;stroke-dashoffset:608;animation:ThLyuuKb_draw 3000ms linear 0ms forwards;}.ThLyuuKb_8{stroke-dasharray:803 805;stroke-dashoffset:804;animation:ThLyuuKb_draw 3000ms linear 0ms forwards;}.ThLyuuKb_9{stroke-dasharray:602 604;stroke-dashoffset:603;animation:ThLyuuKb_draw 3000ms linear 0ms forwards;}@keyframes ThLyuuKb_draw{100%{stroke-dashoffset:0;}}@keyframes ThLyuuKb_fade{0%{stroke-opacity:1;}94.44444444444444%{stroke-opacity:1;}100%{stroke-opacity:0;}}</style></svg>