<svg xmlns="http://www.w3.org/2000/svg" viewBox="0 0 64 80" x="0px" y="0px"><g data-name="01 Fragile"><g><path d="M51.574,31.462a1,1,0,0,0-1.141-.437l-2.721.817a1,1,0,0,0,.576,1.916l1.97-.591A19.735,19.735,0,0,1,53,43a20.807,20.807,0,0,1-.621,5H39a1,1,0,0,0,0,2H51.781a20.989,20.989,0,0,1-1.33,3H32a1,1,0,0,0,0,2H49.2a21,21,0,0,1-8.261,7H23.058A21.094,21.094,0,0,1,13.027,52a1,1,0,1,0-1.8.859,23.09,23.09,0,0,0,11.2,11.049,1,1,0,0,0,.417.091H41.163a1,1,0,0,0,.417-.091A23.073,23.073,0,0,0,55,43,21.962,21.962,0,0,0,51.574,31.462Z"/><path d="M20.219,51.624a.992.992,0,0,0,.977.356l1.761-.352-2.112,2.113-4.33-2.6a1,1,0,1,0-1.03,1.714l5,3a1,1,0,0,0,1.222-.15l5-5a1,1,0,0,0-.9-1.687l-4.4.88-3.62-4.524a1,1,0,0,0-1.056-.337l-5.42,1.548A21.165,21.165,0,0,1,11,43a18.5,18.5,0,0,1,.11-2H30a1,1,0,0,0,0-2H11.439a19.888,19.888,0,0,1,1.37-4.039A.938.938,0,0,0,13,35H26a1,1,0,0,0,0-2H13.831a32.085,32.085,0,0,1,4.847-6.239A13.78,13.78,0,0,0,23,17c0-2.5-1.28-4.491-2.635-6.6C18.847,8.044,17.281,5.61,17.034,2H46.966c-.247,3.61-1.813,6.044-3.331,8.4C42.28,12.509,41,14.5,41,17a13.707,13.707,0,0,0,4.173,9.606l-2.079,1.188-4.47-3.575a1,1,0,0,0-1.392.141l-5,6a1,1,0,0,0,.964,1.62l4.594-.918,5.655,3.77a1,1,0,1,0,1.11-1.664l-6-4a1,1,0,0,0-.751-.148l-2.222.444,2.559-3.071,4.234,3.388a1,1,0,0,0,1.121.087l3.777-2.158a1,1,0,0,0,.238-1.547q-.373-.4-.757-.8A11.852,11.852,0,0,1,43,17c0-1.914,1.074-3.583,2.317-5.515C47.043,8.8,49,5.762,49,1a1,1,0,0,0-1-1H16a1,1,0,0,0-1,1c0,4.762,1.956,7.8,3.683,10.485C19.926,13.417,21,15.086,21,17a11.852,11.852,0,0,1-3.754,8.364C11.7,31.049,9,36.818,9,43a23.1,23.1,0,0,0,.56,5.066,1,1,0,0,0,1.251.742l5.824-1.663Z"/></g></g></svg>