<svg xmlns="http://www.w3.org/2000/svg" viewBox="0 0 64 80" x="0px" y="0px"><circle cx="24" cy="31" r="1"/><circle cx="45" cy="36" r="1"/><path d="m56,46h-9.118c1.194-1.041,2.704-2.507,4.197-4.374,3.928-4.89,5.92-10.147,5.92-15.626,0-1.979-.172-3.688-.525-5.223-1.324-5.796-4.899-7.424-7.772-8.731-1.224-.557-4.211-1.674-4.865-5.108.829-.124,1.538-.437,2.08-.924.697-.627,1.082-1.52,1.082-2.514,0-1.93-1.57-3.5-3.5-3.5h-23c-.938,0-1.817.363-2.477,1.022-.65.649-1.023,1.552-1.023,2.478,0,1.553.991,3.11,3.161,3.431-.762,3.172-3.641,4.558-4.865,5.117-1.627.742-3.47,1.585-5.019,3.241-.003.003-.005.005-.008.008-.007.008-.015.014-.022.022-2.185,2.35-3.248,5.843-3.248,10.681,0,1.768.215,3.531.638,5.234.875,3.637,2.653,7.134,5.282,10.391,1.494,1.867,3.005,3.334,4.198,4.375h-9.118c-.552,0-1,.447-1,1v5c0,.553.448,1,1,1h5v10c0,.553.448,1,1,1h36c.552,0,1-.447,1-1v-10h5c.552,0,1-.447,1-1v-5c0-.553-.448-1-1-1Zm-13.115-36h-21.77c.794-1.211,1.031-2.237,1.048-3h19.675c.016.763.253,1.789,1.048,3ZM19,3.5c0-.398.159-.785.437-1.062.278-.278.666-.438,1.063-.438h23c.827,0,1.5.673,1.5,1.5,0,.297-.073.715-.419,1.026-.344.31-.891.474-1.581.474h-22c-1.271,0-2-.547-2-1.5Zm-2.873,10.368c1.193-.545,2.316-1.079,3.234-1.868h25.278c.919.79,2.042,1.323,3.236,1.866,2.479,1.128,5.03,2.301,6.304,6.134h-15.178c-.552,0-1,.447-1,1s.448,1,1,1h15.675c.163.913.264,1.916.302,3H9.027c.124-3.569.922-6.198,2.426-8h29.548c.552,0,1-.447,1-1s-.448-1-1-1H13.857c.741-.433,1.512-.786,2.27-1.132Zm-.246,28.132h13.119c.552,0,1-.447,1-1s-.448-1-1-1h-14.807c-1.987-2.543-3.425-5.224-4.273-8h10.08c.552,0,1-.447,1-1s-.448-1-1-1h-10.583c-.204-.987-.335-1.99-.386-3h45.923c-.223,4.518-1.949,8.884-5.154,13h-14.799c-.552,0-1,.447-1,1s.448,1,1,1h13.119c-1.992,2.164-3.809,3.548-4.437,1h-23.365c-.627-.452-0.444-0.836-1.436-2Zm33,20h-3v-5c0-.553-.448-1-1-1s-1,.447-1,1v5h-2v-3c0-.553-.448-1-1-1s-1,.447-1,1v3H15v-9h34v9Zm6-11H9v-3h46v3Z"/><path d="m31,20h-10c-.552,0-1,.447-1,1s.448,1,1,1h10c.552,0,1-.447,1-1s-.448-1-1-1Z"/></svg>