<svg xmlns="http://www.w3.org/2000/svg" width="100%" height="100%" xmlns:xlink="http://www.w3.org/1999/xlink" viewBox="0 0 1080 650" preserveAspectRatio="xMinYMin meet" xmlns:drawsvg="http://www.drawsvg.org" style=""><path id="svgEditorBackground" width="1080" height="650" style="fill: none; stroke: none;" d="M0 0 L1080 0 L1080 650 L0 650 Z" class="zQKFXxhy_0"></path><path style="fill:none;stroke:bisque;stroke-width:3px" id="e4_path" d="M61.87,176.84a155.06,155.06,0,0,1,0,0" class="zQKFXxhy_1"></path><text dy="-0.5em" style="fill:black;font-family:Arial;font-size:20px" id="e9_text"></text><path id="e10_circle" style="fill:none;stroke:mistyrose;stroke-width:2px" d="M482.95799999999997,323.196A150,150 0,1,1 782.958,323.196A150,150 0,1,1 482.95799999999997,323.196" class="zQKFXxhy_2"></path><g drawsvg:ctype="layer" id="Second_Circle"><path style="fill:none;stroke:mistyrose;stroke-width:2px" id="e3_path" d="M486.58,171.89a215.38,215.38,0,0,1,152.3,-63.08" class="zQKFXxhy_3"></path><path style="fill:none;stroke:mistyrose;stroke-width:2px" id="e5_path" d="M853.148001,324.19a215.38,215.38,0,0,1,-63.083341,152.296659" class="zQKFXxhy_4"></path><path style="fill:none;stroke:mistyrose;stroke-width:2px" id="e7_path" d="M637.768001,541.793996a215.38,215.38,0,0,1,-82.422358,-16.394826a215.38,215.38,0,0,1,-37.236359,-19.903249" class="zQKFXxhy_5"></path><path style="fill:none;stroke:mistyrose;stroke-width:1px" id="e22_path" d="M249.634,327.516a385.91,385.91,0,0,1,0.465,-18.936a385.91,385.91,0,0,1,1.393,-18.89a385.91,385.91,0,0,1,5.557,-37.462a385.91,385.91,0,0,1,21.96,-72.394a385.91,385.91,0,0,1,83.655,-125.198" class="zQKFXxhy_6"></path><path style="fill:none;stroke:mistyrose;stroke-width:1px" id="e9_path" d="M1021.454,327.516a385.91,385.91,0,0,1,-385.91,385.91" class="zQKFXxhy_7"></path></g><g drawsvg:ctype="layer" id="Third_Circle"></g><style data-made-with="vivus-instant">.zQKFXxhy_0{stroke-dasharray:3460 3462;stroke-dashoffset:3461;animation:zQKFXxhy_draw_0 7200ms linear 0ms infinite,zQKFXxhy_fade 7200ms linear 0ms infinite;}.zQKFXxhy_1{stroke-dasharray:0 2;stroke-dashoffset:1;animation:zQKFXxhy_draw_1 7200ms linear 0ms infinite,zQKFXxhy_fade 7200ms linear 0ms infinite;}.zQKFXxhy_2{stroke-dasharray:943 945;stroke-dashoffset:944;animation:zQKFXxhy_draw_2 7200ms linear 0ms infinite,zQKFXxhy_fade 7200ms linear 0ms infinite;}.zQKFXxhy_3{stroke-dasharray:170 172;stroke-dashoffset:171;animation:zQKFXxhy_draw_3 7200ms linear 0ms infinite,zQKFXxhy_fade 7200ms linear 0ms infinite;}.zQKFXxhy_4{stroke-dasharray:170 172;stroke-dashoffset:171;animation:zQKFXxhy_draw_4 7200ms linear 0ms infinite,zQKFXxhy_fade 7200ms linear 0ms infinite;}.zQKFXxhy_5{stroke-dasharray:127 129;stroke-dashoffset:128;animation:zQKFXxhy_draw_5 7200ms linear 0ms infinite,zQKFXxhy_fade 7200ms linear 0ms infinite;}.zQKFXxhy_6{stroke-dasharray:304 306;stroke-dashoffset:305;animation:zQKFXxhy_draw_6 7200ms linear 0ms infinite,zQKFXxhy_fade 7200ms linear 0ms infinite;}.zQKFXxhy_7{stroke-dasharray:607 609;stroke-dashoffset:608;animation:zQKFXxhy_draw_7 7200ms linear 0ms infinite,zQKFXxhy_fade 7200ms linear 0ms infinite;}@keyframes zQKFXxhy_draw{100%{stroke-dashoffset:0;}}@keyframes zQKFXxhy_fade{0%{stroke-opacity:1;}94.44444444444444%{stroke-opacity:1;}100%{stroke-opacity:0;}}@keyframes zQKFXxhy_draw_0{11.11111111111111%{stroke-dashoffset: 3461}38.88888888888889%{ stroke-dashoffset: 0;}100%{ stroke-dashoffset: 0;}}@keyframes zQKFXxhy_draw_1{13.095238095238097%{stroke-dashoffset: 1}40.87301587301588%{ stroke-dashoffset: 0;}100%{ stroke-dashoffset: 0;}}@keyframes zQKFXxhy_draw_2{15.07936507936508%{stroke-dashoffset: 944}42.85714285714286%{ stroke-dashoffset: 0;}100%{ stroke-dashoffset: 0;}}@keyframes zQKFXxhy_draw_3{17.06349206349206%{stroke-dashoffset: 171}44.841269841269835%{ stroke-dashoffset: 0;}100%{ stroke-dashoffset: 0;}}@keyframes zQKFXxhy_draw_4{19.04761904761905%{stroke-dashoffset: 171}46.82539682539682%{ stroke-dashoffset: 0;}100%{ stroke-dashoffset: 0;}}@keyframes zQKFXxhy_draw_5{21.03174603174603%{stroke-dashoffset: 128}48.80952380952381%{ stroke-dashoffset: 0;}100%{ stroke-dashoffset: 0;}}@keyframes zQKFXxhy_draw_6{23.015873015873016%{stroke-dashoffset: 305}50.79365079365079%{ stroke-dashoffset: 0;}100%{ stroke-dashoffset: 0;}}@keyframes zQKFXxhy_draw_7{25%{stroke-dashoffset: 608}52.77777777777778%{ stroke-dashoffset: 0;}100%{ stroke-dashoffset: 0;}}</style></svg>