<svg id="svg" xmlns="http://www.w3.org/2000/svg" xmlns:xlink="http://www.w3.org/1999/xlink" width="400" height="400" viewBox="0, 0, 400,400"><g id="svgg"><path id="path0" d="M279.319 32.776 C 279.020 33.261,278.119 33.449,277.317 33.195 C 274.803 32.397,267.188 37.909,267.188 40.527 C 267.188 41.405,264.719 42.969,263.333 42.969 C 262.875 42.969,262.500 42.508,262.500 41.944 C 262.500 39.885,258.321 37.693,254.778 37.893 C 251.513 38.077,247.099 36.553,245.898 34.827 C 245.495 34.247,245.103 34.309,244.640 35.026 C 244.087 35.884,243.892 35.871,243.540 34.956 C 242.971 33.471,238.281 34.118,238.281 35.682 C 238.281 36.303,237.944 36.603,237.532 36.348 C 236.537 35.733,233.594 37.611,233.594 38.860 C 233.594 39.401,233.330 39.802,233.008 39.751 C 231.274 39.478,230.469 40.011,230.469 41.431 C 230.469 42.304,229.921 43.228,229.252 43.485 C 228.583 43.742,228.209 44.405,228.421 44.958 C 228.634 45.512,228.280 46.167,227.636 46.414 C 226.991 46.662,226.667 47.194,226.916 47.597 C 227.165 48.000,227.041 48.532,226.639 48.781 C 225.751 49.330,225.939 53.866,226.915 55.423 C 227.364 56.139,227.307 56.653,226.761 56.835 C 226.288 56.993,226.053 57.958,226.238 58.980 C 226.423 60.001,226.183 61.080,225.704 61.376 C 225.090 61.756,225.139 62.103,225.871 62.555 C 226.441 62.908,226.663 63.441,226.363 63.741 C 226.064 64.040,225.371 63.933,224.824 63.503 C 223.540 62.493,217.188 62.281,217.188 63.247 C 217.188 63.652,215.976 63.477,214.495 62.858 C 212.692 62.105,211.636 62.001,211.300 62.545 C 210.954 63.105,210.488 63.100,209.800 62.528 C 208.637 61.563,206.656 63.357,207.624 64.499 C 207.943 64.875,207.588 64.712,206.836 64.136 C 205.740 63.298,205.469 63.290,205.469 64.097 C 205.469 64.651,205.251 64.887,204.985 64.621 C 204.380 64.015,202.344 65.986,202.344 67.178 C 202.344 67.664,201.992 67.844,201.563 67.578 C 201.133 67.313,200.781 67.620,200.781 68.261 C 200.781 68.902,200.116 69.637,199.303 69.895 C 198.490 70.153,197.644 71.057,197.422 71.904 C 197.139 72.988,196.618 73.290,195.662 72.923 C 194.849 72.611,193.960 72.871,193.442 73.572 C 192.967 74.215,191.555 74.996,190.306 75.307 C 189.056 75.619,186.883 77.023,185.477 78.429 L 182.922 80.984 176.115 72.869 C 172.371 68.406,169.058 65.038,168.752 65.385 C 168.446 65.732,164.995 70.289,161.083 75.511 L 153.971 85.006 151.009 84.319 C 149.380 83.940,147.783 83.623,147.461 83.612 C 147.139 83.602,146.875 83.093,146.875 82.482 C 146.875 74.438,132.673 73.095,128.398 80.735 C 127.699 81.984,127.359 81.930,123.961 80.031 C 116.190 75.687,107.484 76.805,103.350 82.678 C 100.713 86.424,99.627 86.669,85.156 86.788 C 78.649 86.841,75.357 87.114,76.563 87.500 C 77.637 87.844,83.988 88.161,90.676 88.203 L 102.836 88.281 104.142 85.542 C 107.633 78.220,120.557 77.938,126.879 85.046 C 128.851 87.263,129.688 87.157,129.688 84.688 C 129.688 76.620,142.357 75.213,144.370 83.057 C 144.934 85.253,145.441 85.631,148.676 86.264 C 150.693 86.658,152.343 87.185,152.342 87.436 C 152.335 89.760,128.407 117.518,115.414 130.273 L 107.258 138.281 88.590 138.461 L 69.922 138.641 87.843 138.867 L 105.765 139.093 102.329 142.593 L 98.893 146.094 83.087 146.094 C 72.792 146.094,67.101 146.383,66.768 146.922 C 66.412 147.498,70.940 147.677,81.632 147.508 L 97.007 147.266 94.402 149.459 C 88.519 154.412,76.010 163.589,72.513 165.516 C 68.143 167.925,68.131 168.002,70.755 177.057 C 76.095 195.482,88.814 214.590,106.842 231.269 L 113.151 237.106 109.896 238.670 C 104.721 241.157,105.100 248.412,110.407 248.449 C 113.793 248.473,114.450 249.605,112.593 252.213 C 95.796 275.802,109.782 315.055,143.959 340.244 C 148.891 343.879,149.213 344.298,148.747 346.484 C 147.695 351.415,145.931 354.699,144.085 355.162 C 141.535 355.802,140.367 357.459,140.918 359.657 C 141.523 362.063,143.696 362.869,154.688 364.763 C 187.888 370.482,250.829 367.785,242.646 360.994 C 242.049 360.498,241.343 359.230,241.079 358.176 C 240.776 356.968,239.610 355.847,237.929 355.144 C 234.968 353.907,233.091 350.928,232.401 346.371 C 231.950 343.394,232.009 343.311,237.539 339.063 C 268.328 315.411,281.283 279.225,267.531 255.291 C 263.426 248.147,263.479 248.438,266.285 248.438 C 269.116 248.437,271.094 246.262,271.094 243.147 C 271.094 240.187,268.730 238.281,265.061 238.281 C 261.766 238.281,261.754 238.334,266.712 230.913 C 271.489 223.763,275.370 216.212,278.415 208.145 C 280.473 202.691,280.560 202.594,284.977 200.788 C 290.783 198.413,296.888 194.524,301.440 190.300 C 306.983 185.156,316.764 181.249,319.818 182.958 C 320.527 183.354,321.455 183.463,321.881 183.199 C 322.534 182.796,323.049 184.725,322.461 185.371 C 322.046 185.827,324.642 188.098,325.195 187.763 C 325.518 187.567,325.809 188.044,325.843 188.821 C 325.881 189.696,326.059 189.850,326.310 189.225 C 326.587 188.532,327.304 188.901,328.591 190.397 C 329.820 191.826,330.471 192.174,330.480 191.406 C 330.491 190.365,330.577 190.365,331.250 191.406 C 331.834 192.310,332.010 192.336,332.019 191.518 C 332.027 190.850,332.514 190.643,333.336 190.959 C 334.055 191.235,334.926 191.009,335.277 190.456 C 335.794 189.641,335.916 189.642,335.926 190.460 C 335.935 191.283,336.138 191.283,337.027 190.460 C 337.627 189.906,337.960 189.193,337.768 188.876 C 337.576 188.559,338.022 188.531,338.759 188.814 C 339.669 189.163,339.918 189.034,339.535 188.414 C 339.217 187.899,339.416 187.476,339.993 187.445 C 340.555 187.415,340.313 187.088,339.453 186.719 C 338.117 186.145,338.089 186.039,339.258 185.992 C 340.010 185.962,340.625 185.603,340.625 185.195 C 340.625 184.787,340.010 184.104,339.258 183.678 C 337.967 182.946,337.972 182.843,339.351 181.823 C 340.470 180.997,344.141 180.549,344.141 181.239 C 344.141 181.844,348.533 181.727,348.913 181.112 C 349.239 180.585,349.632 180.654,350.038 181.312 C 350.520 182.092,350.914 182.112,351.770 181.402 C 352.380 180.896,353.109 180.714,353.392 180.996 C 353.675 181.279,353.906 181.063,353.906 180.515 C 353.906 179.962,354.415 179.715,355.053 179.960 C 355.684 180.202,356.441 180.010,356.736 179.533 C 357.061 179.007,356.917 178.885,356.371 179.222 C 355.111 180.001,355.243 179.020,356.578 177.686 C 357.429 176.834,357.778 176.802,358.079 177.546 C 358.303 178.100,358.497 177.910,358.532 177.102 C 358.570 176.230,358.944 175.905,359.508 176.254 C 360.122 176.634,360.258 176.393,359.923 175.519 C 359.648 174.803,359.802 174.219,360.264 174.219 C 360.727 174.219,360.902 173.691,360.655 173.047 C 360.408 172.402,360.634 171.870,361.157 171.863 C 361.771 171.855,361.824 171.647,361.307 171.277 C 360.865 170.961,360.530 169.736,360.562 168.555 C 360.594 167.373,360.339 166.406,359.997 166.406 C 359.655 166.406,359.375 165.879,359.375 165.234 C 359.375 164.590,359.023 164.063,358.594 164.063 C 358.164 164.063,357.813 163.535,357.813 162.891 C 357.813 162.246,357.285 161.719,356.641 161.719 C 355.996 161.719,355.557 161.291,355.664 160.768 C 355.771 160.245,354.666 159.210,353.208 158.468 C 351.749 157.725,349.411 155.904,348.010 154.419 C 344.045 150.215,334.236 150.988,332.160 155.669 C 332.016 155.994,331.566 156.055,331.161 155.805 C 330.756 155.554,329.812 156.106,329.063 157.031 L 327.701 158.713 325.142 155.529 C 322.287 151.976,319.870 151.195,320.723 154.102 L 321.238 155.859 319.973 154.134 C 318.578 152.233,316.012 152.533,316.770 154.508 C 317.141 155.475,317.012 155.514,316.061 154.725 C 314.883 153.748,310.156 156.193,310.156 157.779 C 310.156 158.132,309.578 158.371,308.872 158.312 C 307.266 158.176,303.997 164.357,304.083 167.367 C 304.116 168.558,304.431 169.531,304.782 169.531 C 305.133 169.531,305.216 170.063,304.967 170.712 C 304.643 171.555,304.872 171.755,305.767 171.412 C 309.835 169.851,307.726 180.005,302.954 184.957 C 298.696 189.376,284.608 198.125,282.749 197.505 C 281.575 197.114,284.386 192.630,289.880 186.130 C 298.629 175.778,300.450 171.824,305.081 153.125 L 306.920 145.703 312.249 140.780 C 318.293 135.198,322.177 132.678,321.328 134.892 C 320.941 135.901,321.135 136.089,322.160 135.696 C 322.977 135.382,323.662 135.614,323.922 136.292 C 324.166 136.927,324.876 137.199,325.583 136.927 C 326.396 136.616,326.627 136.763,326.259 137.358 C 325.894 137.950,326.120 138.102,326.913 137.798 C 327.581 137.542,328.125 137.741,328.125 138.244 C 328.125 138.745,328.447 138.956,328.840 138.713 C 329.233 138.470,329.732 138.713,329.950 139.253 C 330.256 140.014,330.359 140.004,330.407 139.212 C 330.441 138.649,330.820 138.406,331.250 138.672 C 331.680 138.937,332.056 138.695,332.086 138.132 C 332.116 137.570,332.443 137.813,332.813 138.672 C 333.387 140.008,333.492 140.036,333.539 138.867 C 333.569 138.115,333.857 137.542,334.180 137.593 C 336.348 137.935,338.306 137.392,337.809 136.586 C 337.435 135.981,337.661 135.832,338.479 136.146 C 339.211 136.427,339.903 136.129,340.176 135.416 C 340.453 134.695,341.140 134.405,341.890 134.693 C 342.771 135.031,343.013 134.835,342.705 134.033 C 342.411 133.267,342.640 133.035,343.399 133.326 C 344.098 133.595,344.531 133.281,344.531 132.505 C 344.531 131.815,344.971 131.245,345.508 131.238 C 346.159 131.230,346.094 130.974,345.313 130.469 C 344.531 129.964,344.466 129.707,345.117 129.699 C 345.654 129.693,346.094 129.123,346.094 128.432 C 346.094 127.576,345.659 127.328,344.727 127.653 C 343.451 128.097,343.453 128.056,344.750 127.047 C 346.043 126.041,346.048 125.931,344.814 125.457 C 342.314 124.498,345.103 123.159,349.816 123.056 C 352.310 123.002,354.777 122.693,355.300 122.370 C 355.860 122.024,356.255 122.203,356.262 122.805 C 356.271 123.617,356.414 123.608,356.949 122.763 C 357.518 121.864,357.699 121.864,358.109 122.763 C 358.484 123.588,358.697 123.608,359.049 122.852 C 359.300 122.314,360.024 121.875,360.658 121.875 C 361.292 121.875,361.579 121.500,361.296 121.041 C 360.990 120.547,361.336 120.309,362.145 120.456 C 362.896 120.592,363.680 120.215,363.887 119.618 C 364.139 118.894,363.906 118.718,363.187 119.090 C 362.594 119.396,363.078 118.887,364.262 117.959 C 365.446 117.030,366.216 115.949,365.974 115.557 C 365.731 115.165,365.993 114.838,366.555 114.832 C 367.299 114.823,367.258 114.613,366.406 114.063 C 365.434 113.434,365.501 113.301,366.797 113.281 C 367.954 113.264,368.089 113.086,367.316 112.596 C 365.970 111.742,365.964 111.661,367.110 109.520 C 367.855 108.127,367.866 107.458,367.154 106.601 C 366.647 105.989,366.426 104.983,366.663 104.364 C 366.900 103.745,366.588 102.819,365.969 102.305 C 365.350 101.791,364.844 101.047,364.844 100.651 C 364.844 98.954,361.045 95.883,359.458 96.298 C 358.384 96.579,356.858 95.945,354.940 94.422 C 352.217 92.258,351.752 92.150,347.150 92.620 C 342.359 93.109,342.244 93.076,341.746 91.091 C 341.459 89.946,340.678 89.057,339.954 89.051 C 338.922 89.041,338.882 88.906,339.749 88.357 C 341.147 87.471,340.054 85.690,338.482 86.293 C 337.514 86.664,337.460 86.536,338.209 85.634 C 339.260 84.368,338.553 83.689,336.523 84.016 C 334.961 84.268,334.661 83.142,336.133 82.549 C 336.914 82.233,336.914 82.142,336.133 82.093 C 335.596 82.059,335.156 81.504,335.156 80.859 C 335.156 80.215,334.784 79.688,334.329 79.688 C 333.874 79.688,333.720 79.333,333.988 78.900 C 334.531 78.021,332.605 75.781,331.306 75.781 C 330.845 75.781,330.469 75.453,330.469 75.053 C 330.469 73.879,327.311 73.124,320.807 72.742 C 319.761 72.680,319.462 72.225,319.748 71.131 C 319.967 70.292,319.744 69.441,319.253 69.240 C 318.625 68.982,318.644 68.855,319.317 68.812 C 320.019 68.766,320.071 68.217,319.514 66.752 C 319.012 65.431,319.018 64.917,319.534 65.236 C 319.962 65.501,320.313 65.148,320.313 64.453 C 320.313 63.758,319.965 63.404,319.540 63.666 C 319.097 63.940,318.966 63.626,319.233 62.931 C 319.490 62.263,319.290 61.719,318.787 61.719 C 318.286 61.719,318.094 61.367,318.359 60.938 C 318.625 60.508,318.470 60.156,318.015 60.156 C 317.560 60.156,317.188 59.629,317.188 58.984 C 317.188 58.340,316.836 57.813,316.406 57.813 C 315.977 57.813,315.625 57.285,315.625 56.641 C 315.625 55.996,315.098 55.469,314.453 55.469 C 313.809 55.469,313.281 55.174,313.281 54.813 C 313.281 53.791,309.495 52.298,308.987 53.120 C 308.743 53.515,308.116 53.695,307.592 53.520 C 307.069 53.345,305.111 52.810,303.243 52.331 C 300.451 51.616,299.915 51.191,300.240 49.949 C 300.457 49.118,300.279 48.438,299.843 48.438 C 299.408 48.438,299.254 47.910,299.501 47.266 C 299.749 46.621,299.610 46.094,299.194 46.094 C 298.778 46.094,298.438 45.391,298.438 44.531 C 298.438 43.672,298.086 42.969,297.656 42.969 C 297.227 42.969,296.875 42.343,296.875 41.579 C 296.875 40.814,296.172 39.682,295.313 39.063 C 294.453 38.443,293.750 37.487,293.750 36.937 C 293.750 36.387,293.047 35.938,292.188 35.938 C 291.328 35.938,290.625 35.586,290.625 35.156 C 290.625 34.727,290.098 34.375,289.453 34.375 C 288.809 34.375,288.281 34.012,288.281 33.569 C 288.281 33.126,287.139 32.804,285.742 32.853 C 284.346 32.902,282.452 32.707,281.533 32.419 C 280.581 32.120,279.630 32.273,279.319 32.776 M278.906 35.938 C 279.551 36.354,279.902 36.730,279.688 36.772 C 276.365 37.427,274.995 36.984,276.302 35.677 C 276.996 34.983,277.509 35.034,278.906 35.938 M282.129 36.328 C 282.183 36.973,282.280 37.939,282.345 38.477 C 282.410 39.014,283.333 39.388,284.396 39.307 C 285.459 39.227,285.889 39.344,285.352 39.568 C 284.814 39.791,284.375 40.472,284.375 41.081 C 284.375 41.689,284.023 42.188,283.594 42.188 C 283.164 42.188,282.813 41.815,282.813 41.360 C 282.813 40.905,282.498 40.727,282.113 40.965 C 281.039 41.629,280.475 39.369,281.467 38.376 C 282.115 37.729,282.099 37.500,281.406 37.500 C 280.891 37.500,280.469 36.973,280.469 36.328 C 280.469 35.684,280.820 35.156,281.250 35.156 C 281.680 35.156,282.075 35.684,282.129 36.328 M286.719 35.949 C 287.718 36.605,287.728 36.823,286.790 37.428 C 285.447 38.292,283.863 37.767,283.288 36.268 C 282.791 34.972,284.927 34.773,286.719 35.949 M247.191 40.625 C 247.539 40.625,247.621 40.098,247.374 39.453 C 246.797 37.949,247.988 37.943,249.486 39.442 C 250.830 40.785,250.705 43.124,249.264 43.605 C 248.573 43.835,248.433 43.434,248.799 42.280 C 249.390 40.418,247.876 39.924,247.175 41.750 C 246.833 42.642,246.354 42.698,244.862 42.018 C 243.309 41.310,243.149 40.959,243.945 39.999 C 244.771 39.004,244.630 38.926,242.969 39.453 C 241.230 40.005,241.139 39.935,242.094 38.785 C 242.789 37.947,242.855 37.500,242.283 37.500 C 241.801 37.500,241.406 37.079,241.406 36.565 C 241.406 36.052,242.566 36.755,243.983 38.128 C 245.399 39.501,246.843 40.625,247.191 40.625 M274.740 39.188 C 273.663 40.914,272.521 41.105,273.155 39.453 C 273.454 38.675,273.117 38.272,272.154 38.254 C 270.968 38.231,271.059 38.029,272.651 37.148 C 274.971 35.864,276.117 36.983,274.740 39.188 M240.625 37.974 C 240.625 38.769,240.195 39.065,239.453 38.780 C 238.656 38.474,238.281 38.822,238.281 39.868 C 238.281 40.885,237.752 41.406,236.719 41.406 C 234.548 41.406,234.768 40.263,237.305 38.371 C 239.919 36.420,240.625 36.336,240.625 37.974 M293.156 39.908 C 293.980 40.767,294.206 41.515,293.729 41.810 C 293.297 42.077,293.143 42.619,293.387 43.014 C 293.634 43.414,293.225 43.499,292.463 43.207 C 291.622 42.884,291.456 42.562,292.032 42.370 C 293.326 41.938,293.212 40.625,291.880 40.625 C 291.282 40.625,290.576 40.061,290.311 39.372 C 290.046 38.681,289.326 38.313,288.705 38.551 C 287.960 38.837,287.724 38.605,288.009 37.865 C 288.505 36.570,290.840 37.497,293.156 39.908 M278.452 38.755 C 280.356 39.486,279.914 40.787,277.930 40.294 C 276.963 40.054,276.592 40.053,277.105 40.292 C 277.618 40.531,277.828 41.271,277.572 41.938 C 277.184 42.950,277.377 43.006,278.740 42.276 C 279.654 41.787,280.563 41.708,280.803 42.096 C 281.039 42.478,280.329 42.963,279.226 43.173 C 277.956 43.416,277.069 43.163,276.808 42.482 C 276.581 41.890,276.044 41.406,275.614 41.406 C 275.184 41.406,275.035 41.934,275.283 42.578 C 275.556 43.292,275.284 43.750,274.585 43.750 C 273.186 43.750,273.165 43.435,274.414 41.200 C 275.911 38.522,276.661 38.068,278.452 38.755 M272.113 40.670 C 272.458 41.988,272.334 42.111,271.423 41.355 C 270.110 40.266,269.914 41.477,271.196 42.758 C 271.853 43.415,271.747 43.593,270.784 43.452 C 269.422 43.252,269.270 42.678,269.984 40.430 C 270.569 38.587,271.599 38.703,272.113 40.670 M254.582 42.384 C 253.862 43.731,253.926 43.909,254.987 43.502 C 255.682 43.236,256.250 43.358,256.250 43.775 C 256.250 44.741,254.639 44.728,253.125 43.750 C 252.083 43.077,252.083 42.989,253.125 42.957 C 254.003 42.930,253.931 42.709,252.836 42.072 C 251.726 41.428,251.615 41.075,252.374 40.606 C 254.186 39.487,255.546 40.583,254.582 42.384 M260.166 41.807 C 261.689 43.428,261.829 43.939,260.969 44.737 C 260.130 45.515,260.051 45.487,260.560 44.594 C 261.042 43.751,260.855 43.614,259.783 44.026 C 258.543 44.502,258.503 44.410,259.454 43.265 C 260.416 42.105,260.353 42.020,258.875 42.489 C 257.260 43.002,255.744 41.392,256.825 40.311 C 257.633 39.503,258.268 39.787,260.166 41.807 M241.406 41.797 C 240.871 42.441,240.125 42.969,239.748 42.969 C 239.371 42.969,239.063 42.441,239.063 41.797 C 239.063 41.123,239.768 40.625,240.721 40.625 C 242.106 40.625,242.219 40.818,241.406 41.797 M286.945 42.970 C 286.388 45.100,285.371 44.950,285.612 42.773 C 285.874 40.417,285.841 40.473,286.645 40.970 C 287.035 41.211,287.170 42.111,286.945 42.970 M234.793 43.157 C 233.316 43.983,232.398 43.490,233.150 42.274 C 233.422 41.834,234.198 41.687,234.876 41.947 C 235.977 42.370,235.968 42.499,234.793 43.157 M237.711 44.473 C 237.987 45.528,237.781 45.853,237.021 45.561 C 236.425 45.332,235.938 45.497,235.938 45.927 C 235.938 46.356,235.407 46.911,234.758 47.160 C 233.940 47.474,234.104 46.903,235.296 45.291 C 237.329 42.540,237.216 42.579,237.711 44.473 M246.875 44.319 C 246.230 44.565,245.459 45.142,245.160 45.602 C 244.861 46.063,244.344 46.167,244.010 45.833 C 243.287 45.110,245.220 43.753,246.875 43.824 C 247.917 43.868,247.917 43.923,246.875 44.319 M251.228 45.250 C 251.228 46.512,250.977 46.617,249.655 45.909 C 248.094 45.074,248.094 45.062,249.627 44.463 C 250.477 44.131,251.184 43.835,251.200 43.805 C 251.215 43.775,251.228 44.425,251.228 45.250 M266.845 44.985 C 266.166 45.664,265.841 46.631,266.123 47.133 C 266.486 47.781,266.339 47.772,265.616 47.103 C 264.531 46.099,265.738 43.750,267.339 43.750 C 267.747 43.750,267.525 44.306,266.845 44.985 M241.742 45.224 C 241.977 45.605,241.383 46.132,240.421 46.396 C 238.961 46.796,238.866 47.002,239.844 47.644 C 240.488 48.067,240.635 48.419,240.169 48.426 C 238.712 48.446,238.306 47.507,239.117 45.991 C 239.956 44.424,241.050 44.104,241.742 45.224 M263.281 45.998 C 263.281 46.375,262.782 47.098,262.172 47.604 C 261.167 48.439,260.987 47.704,261.659 45.508 C 261.825 44.967,263.281 45.407,263.281 45.998 M301.953 54.688 C 301.688 55.117,300.964 55.469,300.345 55.469 C 299.725 55.469,299.219 55.117,299.219 54.688 C 299.219 54.258,299.943 53.906,300.827 53.906 C 301.712 53.906,302.219 54.258,301.953 54.688 M303.890 57.061 C 303.256 58.246,303.322 58.469,304.208 58.129 C 304.903 57.862,305.535 58.353,305.874 59.422 C 306.301 60.768,306.570 60.908,307.105 60.064 C 307.512 59.420,307.793 59.345,307.801 59.877 C 307.807 60.368,308.322 60.966,308.945 61.205 C 309.745 61.512,309.943 61.250,309.621 60.312 C 309.272 59.298,309.450 59.351,310.372 60.538 C 311.037 61.393,311.424 62.344,311.234 62.653 C 310.801 63.353,308.398 62.508,307.629 61.385 C 307.283 60.880,307.050 61.090,307.043 61.914 C 307.036 62.695,306.445 63.276,305.664 63.269 C 304.517 63.259,304.482 63.140,305.446 62.531 C 306.078 62.131,306.350 61.559,306.051 61.259 C 305.752 60.960,304.986 61.147,304.350 61.675 C 303.128 62.689,301.563 62.195,301.563 60.796 C 301.563 60.236,301.911 60.254,302.631 60.851 C 303.446 61.528,303.945 61.442,304.737 60.487 C 305.633 59.407,305.567 59.272,304.255 59.501 C 303.064 59.708,302.757 59.343,302.837 57.813 C 302.997 54.762,303.074 54.564,303.908 55.079 C 304.430 55.402,304.424 56.064,303.890 57.061 M310.820 56.326 C 312.173 56.798,313.083 57.501,312.844 57.889 C 312.604 58.276,312.768 58.594,313.208 58.594 C 313.648 58.594,314.384 59.297,314.844 60.156 C 315.551 61.477,315.438 61.719,314.115 61.719 C 313.120 61.719,312.697 61.333,312.954 60.662 C 313.177 60.081,312.551 59.076,311.563 58.429 C 309.698 57.207,308.059 56.989,308.398 58.008 C 308.506 58.330,308.046 58.594,307.376 58.594 C 306.706 58.594,306.375 58.242,306.641 57.813 C 306.906 57.383,306.730 57.031,306.250 57.031 C 305.770 57.031,305.594 56.680,305.859 56.250 C 306.482 55.243,307.770 55.263,310.820 56.326 M294.964 58.375 C 294.681 59.113,294.699 59.468,295.004 59.163 C 295.309 58.857,296.039 59.006,296.626 59.492 C 297.468 60.192,297.589 60.108,297.200 59.095 C 296.929 58.390,297.009 57.786,297.377 57.753 C 297.746 57.720,298.661 57.575,299.411 57.432 C 300.956 57.136,301.984 58.241,300.828 58.955 C 300.410 59.214,300.171 59.853,300.297 60.377 C 300.422 60.900,300.378 61.064,300.197 60.742 C 299.706 59.864,297.656 60.036,297.656 60.956 C 297.656 61.597,295.991 60.841,293.086 58.882 C 292.567 58.532,293.844 57.031,294.661 57.031 C 295.114 57.031,295.250 57.631,294.964 58.375 M289.675 61.417 C 291.041 62.879,289.317 63.647,287.885 62.215 C 287.243 61.574,286.719 60.907,286.719 60.733 C 286.719 60.008,288.811 60.492,289.675 61.417 M262.109 61.719 C 261.844 62.148,261.195 62.500,260.668 62.500 C 260.141 62.500,259.710 63.189,259.710 64.032 C 259.710 65.356,259.873 65.418,260.910 64.488 C 261.590 63.878,262.990 63.583,264.141 63.806 C 265.259 64.023,267.369 63.873,268.829 63.474 C 271.726 62.681,273.438 62.957,273.438 64.219 C 273.438 64.663,272.713 64.836,271.827 64.605 C 270.842 64.347,270.051 64.615,269.790 65.295 C 269.556 65.906,269.061 66.406,268.691 66.406 C 268.321 66.406,268.248 65.791,268.530 65.039 C 268.960 63.893,268.850 63.828,267.848 64.642 C 267.191 65.175,266.422 65.380,266.139 65.097 C 265.856 64.815,265.625 65.116,265.625 65.766 C 265.625 66.417,266.416 67.356,267.383 67.853 L 269.141 68.758 267.383 68.311 C 265.447 67.818,265.260 68.170,266.364 70.234 C 266.913 71.259,266.811 71.615,265.969 71.615 C 265.345 71.615,264.925 71.094,265.035 70.459 C 265.145 69.823,264.746 69.133,264.149 68.925 C 263.423 68.672,263.269 68.880,263.684 69.551 C 264.090 70.208,263.993 70.362,263.402 69.996 C 262.906 69.690,262.500 69.811,262.500 70.266 C 262.500 70.721,261.973 71.094,261.328 71.094 C 260.684 71.094,260.156 70.721,260.156 70.266 C 260.156 69.811,260.508 69.656,260.938 69.922 C 261.367 70.187,261.719 70.039,261.719 69.592 C 261.719 69.145,262.567 68.567,263.604 68.307 C 265.461 67.840,265.467 67.811,263.995 66.339 C 262.245 64.589,261.383 64.405,261.959 65.905 C 262.648 67.702,256.900 69.088,255.664 67.423 C 255.124 66.696,254.688 66.524,254.688 67.038 C 254.688 67.550,254.293 67.969,253.811 67.969 C 253.175 67.969,253.183 67.668,253.838 66.879 C 254.335 66.280,254.642 65.313,254.520 64.731 C 254.372 64.030,255.017 63.700,256.428 63.755 C 257.866 63.811,258.710 63.366,259.020 62.388 C 259.273 61.590,260.180 60.938,261.036 60.938 C 261.892 60.938,262.375 61.289,262.109 61.719 M267.031 61.875 C 267.760 62.604,267.969 62.604,267.969 61.875 C 267.969 61.359,268.584 60.949,269.336 60.962 C 270.623 60.986,270.625 61.047,269.366 62.003 C 268.624 62.567,266.936 62.859,265.576 62.659 C 263.839 62.404,263.431 62.104,264.179 61.630 C 265.583 60.740,265.926 60.770,267.031 61.875 M287.070 64.907 C 286.890 65.198,286.034 65.622,285.167 65.848 C 284.301 66.075,283.789 65.942,284.029 65.552 C 284.270 65.163,284.963 64.844,285.568 64.844 C 286.264 64.844,286.508 64.340,286.230 63.477 C 285.871 62.362,285.939 62.319,286.594 63.244 C 287.035 63.868,287.250 64.617,287.070 64.907 M252.507 66.556 C 251.989 67.073,251.245 67.087,250.366 66.595 C 249.359 66.032,249.263 65.690,249.987 65.242 C 250.539 64.901,251.249 65.107,251.638 65.720 C 252.162 66.548,252.337 66.435,252.393 65.234 C 252.439 64.278,252.629 64.077,252.884 64.717 C 253.113 65.292,252.944 66.119,252.507 66.556 M256.445 64.635 C 255.908 64.822,255.469 65.285,255.469 65.666 C 255.469 66.046,256.084 66.127,256.836 65.845 C 257.990 65.412,258.050 65.522,257.220 66.544 C 256.370 67.591,256.512 67.702,258.268 67.366 C 259.575 67.116,259.963 66.769,259.355 66.394 C 258.835 66.072,258.187 65.469,257.916 65.053 C 257.644 64.637,256.982 64.449,256.445 64.635 M229.398 66.569 C 229.132 66.140,229.429 65.591,230.058 65.350 C 230.686 65.109,231.414 65.258,231.675 65.680 C 231.936 66.102,232.730 66.350,233.440 66.232 C 234.150 66.113,234.782 66.455,234.846 66.992 C 235.067 68.870,235.165 68.934,236.328 67.969 C 237.288 67.172,237.500 67.226,237.500 68.264 C 237.500 69.651,235.538 70.000,234.766 68.750 C 234.500 68.320,233.600 67.969,232.766 67.969 C 231.932 67.969,231.239 67.529,231.226 66.992 C 231.213 66.437,230.865 66.594,230.422 67.355 C 229.808 68.408,229.229 68.537,227.711 67.960 C 226.504 67.501,225.781 67.502,225.781 67.963 C 225.781 69.026,222.417 67.641,222.006 66.408 C 221.771 65.702,222.179 65.522,223.332 65.824 C 224.249 66.063,225.207 65.922,225.462 65.509 C 225.734 65.069,226.742 65.294,227.903 66.054 C 228.990 66.767,229.663 66.998,229.398 66.569 M275.038 66.386 C 275.987 65.878,276.678 65.995,277.324 66.773 C 278.091 67.697,277.919 67.828,276.318 67.538 C 274.988 67.296,274.225 67.607,273.870 68.533 C 273.512 69.465,273.180 69.598,272.789 68.965 C 272.441 68.402,271.806 68.310,271.135 68.725 C 270.214 69.294,270.237 69.691,271.284 71.287 C 272.278 72.806,272.311 73.177,271.451 73.177 C 270.863 73.177,270.562 72.884,270.784 72.526 C 271.400 71.528,269.983 71.753,268.732 72.852 C 268.120 73.389,268.280 73.037,269.087 72.070 C 270.524 70.349,270.524 70.312,269.066 70.289 C 267.670 70.266,267.663 70.215,268.962 69.459 C 269.723 69.016,270.127 68.300,269.860 67.868 C 269.586 67.425,270.003 67.191,270.820 67.331 C 271.770 67.493,272.180 67.176,272.015 66.406 C 271.818 65.490,271.972 65.440,272.720 66.174 C 273.358 66.801,274.131 66.872,275.038 66.386 M221.931 68.427 C 222.592 69.224,223.685 69.521,224.993 69.259 C 227.495 68.759,229.049 69.598,228.192 70.986 C 227.844 71.548,227.335 71.978,227.061 71.942 C 225.207 71.694,224.716 71.968,225.781 72.656 C 227.707 73.901,229.707 73.616,229.154 72.175 C 228.763 71.155,229.030 71.013,230.546 71.435 C 232.262 71.911,232.305 71.862,231.055 70.853 C 229.350 69.477,229.283 68.644,230.928 69.275 C 231.610 69.537,232.900 69.790,233.793 69.837 C 234.686 69.883,235.582 70.417,235.784 71.023 C 236.034 71.773,235.751 71.971,234.897 71.643 C 234.208 71.378,233.434 71.501,233.178 71.916 C 232.922 72.330,233.494 72.959,234.450 73.312 C 235.953 73.868,236.009 74.024,234.861 74.465 C 234.041 74.779,233.365 74.532,233.090 73.815 C 232.481 72.228,230.977 72.362,229.361 74.148 C 228.080 75.563,228.084 75.686,229.435 76.551 C 230.763 77.400,230.765 77.432,229.462 77.025 C 228.503 76.725,227.845 77.135,227.363 78.333 C 226.910 79.461,226.644 79.641,226.612 78.841 C 226.585 78.161,226.807 77.360,227.106 77.061 C 227.936 76.231,228.075 74.219,227.302 74.219 C 226.286 74.219,224.967 77.031,225.613 77.819 C 225.921 78.193,225.340 77.800,224.323 76.945 C 222.492 75.406,222.490 75.388,224.127 75.141 C 226.216 74.826,226.265 73.696,224.219 73.047 C 223.359 72.774,222.656 72.212,222.656 71.798 C 222.656 71.384,222.041 70.812,221.289 70.527 C 219.816 69.969,217.969 68.359,217.969 67.634 C 217.969 66.662,220.964 67.261,221.931 68.427 M218.864 70.641 C 219.422 71.866,220.174 72.391,220.996 72.130 C 222.030 71.802,222.061 71.873,221.165 72.510 C 220.559 72.941,219.504 73.084,218.821 72.828 C 217.837 72.461,217.759 72.598,218.448 73.487 C 219.948 75.422,219.559 77.611,217.970 76.173 C 217.255 75.526,216.379 75.261,216.022 75.584 C 215.075 76.444,216.446 74.058,217.818 72.461 C 218.882 71.222,218.842 71.094,217.392 71.094 C 216.512 71.094,215.575 71.661,215.309 72.354 C 214.919 73.370,214.602 73.428,213.671 72.656 C 213.037 72.129,212.733 71.349,212.997 70.922 C 213.288 70.450,213.745 70.561,214.160 71.206 C 214.684 72.018,214.956 71.855,215.326 70.508 C 215.959 68.197,217.782 68.266,218.864 70.641 M240.625 70.405 C 240.625 70.834,240.361 71.026,240.039 70.831 C 238.676 70.006,237.491 72.536,238.683 73.728 C 240.139 75.184,240.181 76.078,238.767 75.535 C 238.175 75.308,237.244 75.534,236.699 76.038 C 235.921 76.756,235.856 76.701,236.397 75.781 C 236.776 75.137,237.103 74.082,237.125 73.438 C 237.228 70.399,240.625 67.455,240.625 70.405 M178.193 80.240 C 181.201 84.070,182.100 89.063,179.782 89.063 C 179.472 89.063,179.219 89.941,179.219 91.016 C 179.219 92.090,179.521 92.969,179.890 92.969 C 180.259 92.969,180.344 93.320,180.079 93.748 C 179.550 94.604,181.998 99.219,182.981 99.219 C 183.318 99.219,183.594 99.767,183.594 100.437 C 183.594 101.107,183.945 101.437,184.375 101.172 C 184.805 100.906,185.156 101.120,185.156 101.647 C 185.156 102.173,185.372 102.388,185.636 102.125 C 185.899 101.861,187.361 103.472,188.884 105.705 C 192.520 111.037,204.513 126.287,210.560 133.267 C 216.110 139.675,220.400 146.460,223.098 153.100 C 226.552 161.600,225.743 160.952,213.872 145.703 C 210.192 140.977,205.145 135.176,202.656 132.813 C 199.198 129.529,198.790 129.276,200.928 131.739 C 208.113 140.014,209.597 144.954,209.466 160.156 C 209.386 169.497,208.179 181.136,207.892 175.334 C 207.543 168.260,195.528 150.525,173.053 123.911 C 166.982 116.722,166.403 115.467,166.416 109.519 L 166.425 105.078 168.335 108.418 C 169.385 110.255,172.308 114.298,174.830 117.402 C 177.352 120.507,181.807 126.299,184.731 130.273 C 187.654 134.248,190.194 137.500,190.374 137.500 C 190.785 137.500,181.805 124.543,174.944 115.234 C 166.488 103.765,166.846 105.024,167.077 87.560 C 167.359 66.251,167.256 66.319,178.193 80.240 M254.688 72.184 C 254.688 72.577,254.044 72.316,253.257 71.604 C 252.470 70.892,251.535 70.574,251.179 70.897 C 250.822 71.220,250.779 71.052,251.083 70.524 C 251.699 69.452,254.688 70.829,254.688 72.184 M309.531 75.938 C 308.802 76.667,308.378 76.659,307.624 75.905 C 306.851 75.132,306.890 74.789,307.813 74.219 C 309.379 73.250,310.799 74.670,309.531 75.938 M201.172 76.564 C 200.813 77.693,201.042 77.910,202.258 77.593 C 203.180 77.351,203.629 76.750,203.378 76.095 C 202.911 74.879,203.191 74.775,205.031 75.481 C 206.087 75.886,205.966 76.256,204.259 77.838 L 202.234 79.715 200.244 78.149 C 198.340 76.652,196.364 76.666,197.293 78.170 C 197.538 78.565,197.192 78.679,196.525 78.423 C 194.687 77.718,195.053 76.963,197.852 75.686 C 200.830 74.326,201.800 74.582,201.172 76.564 M314.316 74.733 C 315.126 75.543,313.285 77.296,312.102 76.842 C 311.516 76.617,311.227 75.935,311.461 75.326 C 311.905 74.169,313.434 73.851,314.316 74.733 M319.752 75.550 C 319.539 76.107,319.029 76.563,318.620 76.563 C 318.211 76.563,318.131 76.151,318.441 75.648 C 318.825 75.028,318.575 74.900,317.666 75.249 C 316.920 75.535,316.523 75.443,316.772 75.041 C 317.463 73.921,320.198 74.389,319.752 75.550 M304.688 76.174 C 304.688 77.766,303.055 78.491,302.268 77.249 C 301.263 75.661,301.396 75.345,303.125 75.215 C 303.989 75.150,304.688 75.579,304.688 76.174 M323.633 76.790 C 325.090 77.328,325.527 78.906,324.219 78.906 C 323.115 78.906,320.346 76.008,320.910 75.444 C 321.167 75.187,321.577 75.271,321.822 75.631 C 322.066 75.991,322.881 76.513,323.633 76.790 M164.710 90.670 L 164.453 98.918 160.627 105.514 C 158.522 109.141,153.238 116.855,148.884 122.656 C 135.962 139.874,132.971 145.373,130.538 156.379 C 129.179 162.530,129.051 162.769,128.222 160.691 C 127.009 157.653,127.182 147.914,128.515 144.171 C 130.141 139.605,129.391 139.946,127.345 144.703 C 125.262 149.544,124.483 156.992,125.627 161.133 C 126.615 164.709,126.401 164.746,123.375 161.523 C 118.088 155.892,111.719 144.409,111.719 140.509 C 111.719 140.046,116.309 134.913,121.920 129.103 C 135.051 115.506,147.260 100.844,156.836 87.171 L 164.453 76.296 164.710 79.359 C 164.851 81.044,164.851 86.133,164.710 90.670 M193.350 78.922 C 192.912 79.630,192.622 79.609,192.141 78.832 C 191.318 77.499,192.127 76.189,193.145 77.208 C 193.575 77.637,193.667 78.409,193.350 78.922 M301.175 77.349 C 301.443 77.782,301.092 78.355,300.395 78.622 C 299.699 78.889,299.303 79.561,299.515 80.114 C 299.728 80.668,299.346 81.334,298.667 81.594 C 297.032 82.222,296.353 81.460,297.513 80.299 C 298.021 79.791,298.438 78.742,298.438 77.969 C 298.438 76.470,300.363 76.035,301.175 77.349 M306.261 77.721 C 305.464 78.682,305.648 79.013,307.337 79.655 C 310.315 80.787,309.829 81.692,306.220 81.733 C 304.340 81.755,303.472 81.517,304.072 81.145 C 304.625 80.802,305.125 80.070,305.183 79.518 C 305.241 78.967,305.329 78.076,305.379 77.539 C 305.428 77.002,305.863 76.563,306.346 76.563 C 306.956 76.563,306.930 76.915,306.261 77.721 M317.736 78.306 C 318.695 78.548,319.596 78.345,319.771 77.847 C 319.945 77.355,320.093 77.927,320.102 79.117 C 320.116 81.054,320.013 81.139,319.128 79.928 C 318.290 78.783,317.944 78.735,316.881 79.617 C 315.135 81.066,312.768 79.294,314.179 77.594 C 314.684 76.986,315.303 76.800,315.556 77.180 C 315.809 77.560,316.790 78.067,317.736 78.306 M311.412 78.580 C 311.151 79.259,310.938 80.005,310.938 80.238 C 310.938 80.470,310.394 80.209,309.729 79.657 C 308.763 78.855,308.724 78.524,309.533 78.011 C 311.134 76.995,311.928 77.235,311.412 78.580 M191.406 78.990 C 191.406 79.465,190.897 79.659,190.274 79.420 C 189.518 79.130,189.286 79.361,189.576 80.118 C 189.815 80.741,189.659 81.250,189.230 81.250 C 188.047 81.250,187.455 79.061,188.520 78.628 C 190.183 77.951,191.406 78.105,191.406 78.990 M196.526 81.182 C 195.852 82.273,193.750 82.289,193.750 81.204 C 193.750 80.749,194.102 80.594,194.531 80.859 C 194.961 81.125,195.313 80.724,195.313 79.968 C 195.313 78.959,195.544 78.825,196.182 79.463 C 196.660 79.941,196.815 80.715,196.526 81.182 M199.715 79.452 C 199.415 79.752,199.972 80.479,200.952 81.068 C 201.932 81.657,202.142 81.959,201.418 81.738 C 200.693 81.518,199.930 81.757,199.722 82.270 C 199.513 82.783,199.314 82.567,199.280 81.790 C 199.240 80.875,198.875 80.583,198.242 80.963 C 197.579 81.362,197.609 81.126,198.338 80.228 C 198.928 79.501,199.601 78.906,199.835 78.906 C 200.069 78.906,200.015 79.152,199.715 79.452 M207.031 79.855 C 207.031 80.193,206.483 80.469,205.813 80.469 C 205.143 80.469,204.813 80.820,205.078 81.250 C 205.344 81.680,205.013 82.031,204.343 82.031 C 203.004 82.031,202.933 81.879,203.535 80.309 C 203.965 79.190,207.031 78.791,207.031 79.855 M304.407 79.928 C 304.707 80.228,304.039 80.398,302.923 80.305 C 301.807 80.213,301.046 79.892,301.231 79.591 C 301.632 78.943,303.634 79.154,304.407 79.928 M186.814 83.340 C 186.181 84.428,185.977 84.488,185.949 83.594 C 185.918 82.568,185.823 82.565,185.187 83.571 C 184.787 84.203,184.187 84.448,183.854 84.115 C 183.143 83.404,185.180 81.954,186.096 82.520 C 186.438 82.731,186.719 82.474,186.719 81.947 C 186.719 81.420,186.927 81.198,187.181 81.452 C 187.435 81.706,187.270 82.556,186.814 83.340 M192.188 82.031 C 191.299 82.605,191.269 82.791,192.064 82.801 C 192.641 82.807,194.007 83.516,195.099 84.375 C 197.361 86.154,196.508 86.496,194.187 84.741 C 193.353 84.110,191.991 83.594,191.161 83.594 C 189.909 83.594,189.818 83.395,190.625 82.422 C 191.160 81.777,191.994 81.255,192.478 81.262 C 192.963 81.269,192.832 81.615,192.188 82.031 M313.631 81.965 C 314.172 82.840,312.493 83.505,311.067 82.979 C 310.199 82.659,310.199 82.485,311.067 81.934 C 312.420 81.077,313.087 81.085,313.631 81.965 M278.761 91.211 C 276.629 96.094,276.319 96.328,276.944 92.578 C 277.699 88.053,277.948 87.500,279.228 87.500 C 280.179 87.500,280.097 88.151,278.761 91.211 M288.281 88.125 C 288.281 88.253,287.768 89.352,287.141 90.565 C 286.513 91.778,286.220 92.991,286.489 93.260 C 286.759 93.530,286.644 93.750,286.235 93.750 C 285.826 93.750,285.451 94.365,285.402 95.117 C 285.353 95.869,285.127 97.627,284.901 99.023 C 284.674 100.420,284.821 101.563,285.226 101.563 C 286.439 101.563,282.364 108.807,279.760 111.279 L 277.344 113.574 277.344 108.433 C 277.344 101.684,279.473 91.422,281.282 89.453 C 282.460 88.172,288.281 87.067,288.281 88.125 M336.696 89.032 C 337.328 89.432,337.544 90.042,337.175 90.387 C 336.806 90.733,336.335 90.536,336.127 89.951 C 335.899 89.310,335.553 89.198,335.257 89.669 C 334.950 90.158,334.387 90.044,333.758 89.367 C 332.546 88.061,334.761 87.808,336.696 89.032 M256.277 90.639 C 257.094 91.077,258.704 93.098,259.854 95.132 C 263.921 102.324,265.781 104.570,269.977 107.356 C 275.675 111.139,275.831 113.757,270.703 119.531 C 265.002 125.950,265.653 128.985,274.974 139.453 C 286.373 152.254,285.326 167.183,272.516 174.508 C 268.712 176.683,268.560 176.334,270.334 169.501 C 273.468 157.434,271.785 151.490,262.662 142.403 C 255.791 135.559,254.999 133.957,254.466 125.821 C 254.104 120.306,253.579 118.336,251.280 113.854 C 248.921 109.257,247.953 103.779,250.097 107.161 C 250.585 107.932,250.764 107.796,250.781 106.641 C 250.799 105.484,250.977 105.349,251.466 106.121 C 251.968 106.913,252.229 106.772,252.554 105.532 C 252.842 104.431,253.385 104.055,254.225 104.377 C 254.984 104.669,255.473 104.442,255.481 103.795 C 255.490 102.969,255.678 102.994,256.330 103.906 C 257.002 104.848,257.091 104.733,256.782 103.320 C 256.570 102.354,256.758 101.563,257.200 101.563 C 257.701 101.563,257.661 101.149,257.094 100.467 C 256.431 99.667,256.422 99.292,257.061 99.079 C 258.582 98.572,256.221 94.539,254.367 94.476 C 252.763 94.422,252.762 94.410,254.297 93.750 C 255.156 93.381,255.504 93.054,255.071 93.024 C 254.637 92.993,253.843 92.266,253.306 91.406 C 252.176 89.596,253.627 89.221,256.277 90.639 M276.195 95.508 C 276.871 101.051,276.450 101.111,273.461 95.898 C 270.636 90.973,270.618 90.812,272.852 90.444 C 275.314 90.039,275.578 90.438,276.195 95.508 M327.734 90.625 C 327.469 91.055,327.682 91.406,328.209 91.406 C 329.595 91.406,328.526 92.267,326.829 92.516 C 325.715 92.680,325.448 93.283,325.645 95.192 C 325.796 96.658,325.540 97.656,325.013 97.656 C 324.525 97.656,324.368 97.265,324.663 96.788 C 324.959 96.310,324.749 95.640,324.198 95.300 C 323.431 94.826,323.638 94.121,325.074 92.305 C 326.806 90.116,328.844 88.829,327.734 90.625 M264.175 91.574 C 265.402 91.539,266.406 91.828,266.406 92.215 C 266.406 92.603,266.898 92.731,267.498 92.501 C 269.436 91.757,275.000 100.477,275.000 104.258 C 275.000 106.952,273.491 106.794,269.399 103.673 C 264.554 99.978,256.993 88.578,261.050 91.085 C 261.542 91.389,262.948 91.609,264.175 91.574 M332.813 91.797 C 332.019 92.754,332.064 92.969,333.061 92.969 C 333.733 92.969,334.500 92.617,334.766 92.188 C 335.031 91.758,335.776 91.406,336.420 91.406 C 337.078 91.406,337.358 91.786,337.058 92.271 C 336.698 92.854,337.067 92.964,338.187 92.608 C 340.386 91.910,341.320 94.171,339.560 95.931 C 338.738 96.753,338.281 96.871,338.281 96.261 C 338.281 95.739,338.633 95.313,339.063 95.313 C 339.492 95.313,339.844 95.020,339.844 94.661 C 339.844 94.303,339.404 94.007,338.867 94.003 C 338.330 93.999,337.126 93.749,336.192 93.448 C 334.815 93.005,334.444 93.241,334.238 94.693 C 334.099 95.678,333.574 96.484,333.073 96.484 C 332.572 96.484,331.898 96.748,331.576 97.070 C 331.253 97.393,331.420 97.656,331.947 97.656 C 332.474 97.656,332.690 98.004,332.427 98.430 C 332.126 98.917,331.559 98.844,330.896 98.234 C 329.637 97.075,330.910 95.015,332.507 95.628 C 333.102 95.856,333.354 95.596,333.123 94.994 C 332.870 94.335,331.757 94.082,329.976 94.278 C 328.188 94.475,327.398 94.294,327.727 93.762 C 328.005 93.312,328.560 93.146,328.960 93.393 C 329.360 93.640,329.688 93.323,329.688 92.689 C 329.688 91.518,330.775 90.798,332.713 90.687 C 333.578 90.637,333.597 90.852,332.813 91.797 M350.938 97.031 C 350.208 97.760,349.784 97.753,349.030 96.999 C 348.257 96.226,348.296 95.883,349.219 95.313 C 350.785 94.344,352.205 95.764,350.938 97.031 M345.517 96.749 C 345.415 97.217,345.798 97.421,346.369 97.202 C 346.939 96.983,347.875 97.369,348.449 98.060 C 349.442 99.257,346.559 99.140,344.336 97.893 C 343.334 97.331,343.694 95.162,344.727 95.540 C 345.264 95.737,345.619 96.281,345.517 96.749 M92.383 96.677 C 97.432 96.813,105.693 96.813,110.742 96.677 C 115.791 96.541,111.660 96.430,101.563 96.430 C 91.465 96.430,87.334 96.541,92.383 96.677 M327.862 97.215 C 327.625 97.832,327.851 98.507,328.364 98.716 C 329.083 99.008,329.084 99.110,328.366 99.157 C 327.168 99.236,326.330 97.883,326.953 96.875 C 327.685 95.691,328.351 95.941,327.862 97.215 M354.006 96.680 C 354.482 99.480,354.319 100.521,353.403 100.521 C 352.082 100.521,352.053 99.825,353.320 98.547 C 354.103 97.759,354.026 97.667,352.930 98.084 C 351.593 98.593,351.049 97.649,352.083 96.615 C 352.782 95.916,353.882 95.953,354.006 96.680 M337.388 97.571 C 337.972 97.941,338.121 98.445,337.719 98.693 C 336.664 99.345,333.533 98.387,334.039 97.567 C 334.578 96.696,336.011 96.698,337.388 97.571 M342.553 99.260 C 342.266 99.724,341.514 99.694,340.556 99.182 C 339.710 98.729,339.226 98.024,339.479 97.615 C 339.765 97.151,340.518 97.181,341.476 97.693 C 342.321 98.146,342.806 98.851,342.553 99.260 M226.180 99.231 C 226.450 99.668,226.998 99.823,227.398 99.576 C 227.798 99.329,228.125 99.664,228.125 100.320 C 228.125 101.060,228.570 101.343,229.297 101.064 C 230.039 100.779,230.469 101.075,230.469 101.870 C 230.469 103.662,229.667 103.438,226.563 100.781 C 225.059 99.494,224.247 98.440,224.759 98.439 C 225.270 98.438,225.910 98.795,226.180 99.231 M357.746 100.195 C 358.111 101.162,358.242 102.238,358.036 102.586 C 357.584 103.351,355.529 100.787,355.494 99.414 C 355.452 97.776,357.040 98.326,357.746 100.195 M331.055 101.237 C 330.310 101.982,328.817 100.776,329.372 99.878 C 329.702 99.344,330.139 99.358,330.700 99.919 C 331.160 100.379,331.320 100.972,331.055 101.237 M340.902 102.292 C 340.735 102.478,340.209 102.240,339.732 101.763 C 339.162 101.193,338.227 101.137,337.010 101.600 C 335.604 102.135,335.156 102.040,335.156 101.207 C 335.156 99.641,338.436 99.329,339.938 100.753 C 340.635 101.413,341.068 102.105,340.902 102.292 M362.500 101.255 C 362.500 101.854,362.852 102.344,363.281 102.344 C 363.711 102.344,364.052 102.959,364.039 103.711 C 364.016 105.013,363.977 105.013,363.219 103.711 C 362.781 102.959,361.892 102.344,361.243 102.344 C 360.595 102.344,360.281 101.992,360.547 101.563 C 360.812 101.133,360.637 100.781,360.156 100.781 C 359.676 100.781,359.491 100.445,359.745 100.034 C 360.387 98.994,362.500 99.931,362.500 101.255 M69.755 100.578 C 72.241 100.734,76.109 100.732,78.349 100.575 C 80.589 100.418,78.555 100.290,73.828 100.292 C 69.102 100.294,67.269 100.423,69.755 100.578 M170.990 101.172 C 171.410 102.031,174.779 106.375,178.476 110.825 C 182.173 115.275,187.339 121.955,189.957 125.669 C 194.627 132.296,196.997 135.245,195.697 132.813 C 193.795 129.256,185.627 118.179,180.136 111.712 C 176.667 107.626,173.018 103.232,172.027 101.946 C 171.037 100.661,170.570 100.313,170.990 101.172 M241.383 101.525 C 241.729 102.085,242.404 102.302,242.881 102.007 C 243.718 101.490,244.074 102.445,243.808 104.492 C 243.646 105.741,245.080 105.774,245.495 104.532 C 245.687 103.956,246.009 104.122,246.332 104.963 C 246.646 105.781,246.547 106.139,246.085 105.854 C 245.660 105.591,245.313 105.728,245.313 106.158 C 245.313 106.587,245.672 107.161,246.111 107.433 C 246.964 107.959,251.025 115.718,251.859 118.413 C 252.198 119.509,250.910 118.691,247.859 115.875 C 245.384 113.589,242.832 111.714,242.188 111.707 C 241.232 111.697,241.211 111.571,242.076 111.023 C 242.815 110.555,242.874 110.190,242.271 109.817 C 241.795 109.523,241.000 109.534,240.504 109.840 C 239.904 110.211,239.816 110.051,240.242 109.363 C 240.721 108.587,240.513 108.470,239.410 108.893 C 238.600 109.203,238.190 109.206,238.497 108.899 C 238.804 108.592,237.651 107.711,235.934 106.943 C 231.656 105.027,231.292 101.058,235.352 100.584 C 239.115 100.144,240.681 100.389,241.383 101.525 M345.147 102.243 C 344.696 102.408,344.813 102.823,345.419 103.208 C 346.261 103.741,346.207 103.885,345.163 103.894 C 344.437 103.901,343.625 103.555,343.359 103.125 C 343.094 102.695,343.238 102.344,343.679 102.344 C 344.121 102.344,344.251 101.740,343.967 101.002 C 343.511 99.812,343.593 99.790,344.696 100.807 C 345.391 101.447,345.590 102.081,345.147 102.243 M353.503 102.364 C 353.291 102.707,351.977 102.828,350.582 102.633 C 348.680 102.367,348.340 102.479,349.219 103.081 C 350.531 103.978,349.986 104.151,348.111 103.432 C 346.326 102.747,346.593 101.714,348.633 101.407 C 351.066 101.041,353.968 101.611,353.503 102.364 M162.635 120.597 C 161.385 123.234,157.085 129.785,153.079 135.156 C 149.073 140.527,143.314 148.938,140.281 153.847 C 133.778 164.370,132.811 165.070,132.817 159.245 C 132.827 149.905,136.482 142.535,149.986 124.628 C 155.862 116.836,161.521 108.718,162.562 106.589 L 164.453 102.719 164.680 109.261 C 164.884 115.127,164.672 116.300,162.635 120.597 M197.001 106.443 C 198.426 106.071,198.513 106.211,197.748 107.642 C 197.271 108.533,197.093 109.815,197.352 110.490 C 197.611 111.166,197.593 111.719,197.311 111.719 C 196.609 111.719,193.774 105.357,193.829 103.906 C 193.853 103.262,194.214 103.664,194.630 104.800 C 195.206 106.372,195.773 106.764,197.001 106.443 M198.438 104.705 C 198.438 105.045,197.734 105.139,196.875 104.914 C 196.016 104.689,195.313 104.228,195.313 103.888 C 195.313 103.549,196.016 103.455,196.875 103.680 C 197.734 103.905,198.438 104.366,198.438 104.705 M308.594 106.302 C 308.594 106.795,308.066 106.996,307.422 106.749 C 306.777 106.501,306.245 106.727,306.238 107.251 C 306.230 107.853,305.948 107.772,305.469 107.031 C 304.805 106.004,304.710 106.012,304.699 107.096 C 304.693 107.777,304.176 108.333,303.550 108.333 C 302.924 108.333,302.594 108.040,302.815 107.682 C 303.036 107.324,302.845 107.031,302.390 107.031 C 301.935 107.031,301.563 107.559,301.563 108.203 C 301.563 109.452,301.449 109.505,298.450 109.663 C 295.149 109.837,295.575 107.435,298.994 106.590 C 303.683 105.432,308.594 105.285,308.594 106.302 M108.880 108.532 C 107.094 109.343,105.014 111.075,104.228 112.406 C 102.824 114.782,102.779 114.796,100.817 113.462 C 99.173 112.344,96.799 112.089,87.109 111.989 L 75.391 111.869 86.719 112.809 C 95.462 113.534,98.566 114.092,100.324 115.252 L 102.601 116.755 99.569 117.385 C 97.901 117.731,95.789 118.717,94.876 119.575 C 93.596 120.777,92.786 120.976,91.341 120.441 C 88.024 119.214,81.250 122.567,81.250 125.436 C 81.250 126.858,78.546 127.288,72.686 126.797 C 69.155 126.501,67.227 126.647,66.861 127.240 C 66.467 127.877,68.573 128.125,74.392 128.125 L 82.470 128.125 83.333 125.840 C 84.363 123.111,89.423 121.125,91.865 122.491 C 92.992 123.122,93.786 122.889,95.539 121.413 C 98.262 119.122,100.846 119.007,102.734 121.094 C 104.796 123.371,105.072 123.089,105.138 118.635 C 105.229 112.443,108.873 109.385,116.199 109.350 C 121.017 109.328,121.350 109.224,119.968 108.178 C 117.887 106.605,112.765 106.768,108.880 108.532 M294.811 111.635 C 294.678 111.803,294.033 111.497,293.378 110.953 C 292.387 110.130,292.188 110.199,292.188 111.363 C 292.188 112.131,291.980 112.553,291.726 112.298 C 290.364 110.937,292.268 108.674,293.660 110.001 C 294.426 110.731,294.943 111.466,294.811 111.635 M290.498 110.742 C 290.375 111.494,290.549 112.549,290.886 113.086 C 291.240 113.650,291.130 114.063,290.625 114.063 C 290.145 114.063,289.969 114.414,290.234 114.844 C 290.500 115.273,290.403 115.625,290.020 115.625 C 289.637 115.625,289.323 116.119,289.323 116.722 C 289.323 117.397,289.799 117.642,290.560 117.357 C 291.538 116.992,291.615 117.130,290.927 118.018 C 289.733 119.559,289.858 122.037,291.106 121.558 C 291.766 121.304,291.943 121.603,291.624 122.434 C 291.302 123.273,291.446 123.505,292.055 123.129 C 292.623 122.778,292.973 123.099,292.981 123.977 C 292.990 125.050,293.152 125.139,293.653 124.349 C 294.179 123.519,294.417 123.576,294.820 124.625 C 295.133 125.442,295.802 125.761,296.578 125.463 C 297.499 125.109,297.702 125.317,297.344 126.250 C 296.995 127.160,297.191 127.390,298.038 127.065 C 298.807 126.769,299.223 127.079,299.231 127.954 C 299.241 129.108,299.351 129.132,300.012 128.125 C 300.696 127.083,300.867 127.083,301.551 128.125 C 302.191 129.100,302.324 129.034,302.344 127.734 C 302.364 126.438,302.497 126.372,303.125 127.344 C 303.729 128.278,303.897 128.119,303.956 126.563 C 303.996 125.488,304.207 125.049,304.424 125.586 C 304.640 126.123,305.129 126.563,305.509 126.563 C 305.890 126.563,305.975 125.974,305.699 125.255 C 305.312 124.247,305.511 124.068,306.570 124.474 C 307.478 124.823,307.834 124.675,307.622 124.037 C 307.445 123.507,308.159 122.628,309.208 122.084 C 311.712 120.784,311.719 120.787,311.719 122.991 C 311.719 124.035,312.271 125.441,312.947 126.117 C 314.064 127.233,313.930 127.752,311.471 131.836 C 306.935 139.373,304.080 145.584,302.735 150.844 C 297.248 172.297,296.049 174.519,281.064 191.016 C 280.637 191.486,280.578 189.491,280.915 186.010 C 281.387 181.146,281.274 180.075,280.212 179.298 C 279.095 178.481,279.370 177.881,282.567 174.148 C 294.271 160.480,293.767 147.007,281.130 135.776 C 272.477 128.086,272.376 123.980,280.642 115.917 C 287.157 109.562,291.027 107.530,290.498 110.742 M224.264 116.833 C 227.506 119.401,229.641 122.695,230.065 125.781 C 230.095 125.996,230.782 127.227,231.594 128.516 C 235.497 134.718,235.450 134.318,232.211 133.861 C 230.608 133.635,227.715 132.675,225.781 131.728 C 222.487 130.114,221.457 128.995,213.474 118.359 C 212.492 117.051,211.947 116.676,212.240 117.511 C 212.603 118.545,212.483 118.832,211.852 118.441 C 211.349 118.131,210.938 117.303,210.938 116.601 C 210.938 115.526,210.748 115.563,209.723 116.843 C 208.542 118.317,208.530 118.313,209.304 116.704 C 209.743 115.794,209.850 114.771,209.543 114.431 C 209.236 114.090,209.512 114.122,210.156 114.501 C 210.801 114.880,211.820 115.265,212.422 115.356 C 213.023 115.447,213.845 115.984,214.247 116.550 C 214.759 117.269,214.860 117.036,214.582 115.776 C 214.273 114.371,214.407 114.157,215.192 114.809 C 215.922 115.415,216.451 115.340,217.118 114.537 C 218.454 112.927,219.934 113.403,224.264 116.833 M225.061 138.217 C 236.481 149.639,248.193 161.048,251.089 163.571 C 261.291 172.460,261.686 174.353,254.822 181.445 C 250.145 186.278,251.122 186.695,239.265 174.805 C 229.080 164.591,228.902 164.352,225.893 156.832 C 221.904 146.867,219.041 142.247,210.604 132.164 C 202.767 122.799,199.219 117.579,199.219 115.419 C 199.219 112.837,203.170 116.323,225.061 138.217 M182.735 139.122 C 196.865 155.854,205.039 169.777,205.862 178.516 L 206.303 183.203 204.794 179.661 C 200.189 168.858,188.057 151.921,173.633 136.160 C 167.099 129.020,167.041 128.919,166.603 124.050 L 166.163 119.141 170.386 124.320 C 172.709 127.168,178.266 133.829,182.735 139.122 M235.711 121.066 C 238.597 122.826,240.975 127.052,241.772 131.836 C 242.813 138.087,238.538 135.638,234.868 127.880 C 230.589 118.834,230.691 118.006,235.711 121.066 M314.398 124.308 C 313.658 125.505,312.509 123.542,313.079 122.056 C 313.446 121.101,313.625 121.122,314.221 122.186 C 314.610 122.881,314.690 123.836,314.398 124.308 M319.274 122.331 C 319.612 123.212,319.963 123.270,320.794 122.581 C 321.458 122.030,321.875 121.990,321.875 122.477 C 321.875 123.924,319.586 124.178,318.794 122.819 C 318.302 121.975,318.008 121.861,317.993 122.507 C 317.979 123.070,317.617 123.312,317.188 123.047 C 316.758 122.781,316.401 123.024,316.394 123.587 C 316.385 124.351,316.201 124.322,315.665 123.475 C 314.737 122.008,315.115 121.465,317.170 121.310 C 318.085 121.241,319.032 121.700,319.274 122.331 M324.219 127.426 C 318.193 132.954,310.081 139.247,309.600 138.767 C 308.333 137.500,314.864 128.625,318.971 126.032 C 327.053 120.930,330.347 121.805,324.219 127.426 M163.349 133.049 C 162.472 134.853,158.572 140.371,154.681 145.313 C 150.790 150.254,144.937 157.813,141.675 162.109 C 138.413 166.406,136.008 169.043,136.332 167.969 C 138.008 162.410,145.818 149.499,154.290 138.281 C 157.373 134.199,160.921 129.297,162.174 127.387 L 164.453 123.915 164.698 126.843 C 164.848 128.640,164.328 131.036,163.349 133.049 M247.587 127.186 C 249.692 128.236,250.521 129.347,251.531 132.470 C 253.109 137.353,254.627 139.775,260.359 146.560 C 264.884 151.914,266.394 155.263,266.402 159.961 C 266.407 162.925,265.225 163.345,264.542 160.622 C 263.938 158.216,259.064 152.058,251.496 144.141 C 246.115 138.511,245.470 137.503,244.997 133.984 C 244.708 131.836,244.282 129.111,244.049 127.930 C 243.561 125.451,243.947 125.370,247.587 127.186 M180.782 147.656 C 192.237 161.456,202.158 178.001,203.493 185.530 C 204.034 188.582,203.964 188.526,199.581 182.405 C 192.963 173.162,185.655 163.812,178.529 155.469 C 167.229 142.240,167.184 142.167,167.213 136.997 L 167.239 132.422 171.903 137.500 C 174.468 140.293,178.463 144.863,180.782 147.656 M241.016 140.027 C 245.804 142.560,261.719 164.300,261.719 168.308 C 261.719 172.023,260.897 172.229,258.950 169.004 C 257.998 167.426,253.595 162.945,249.165 159.044 C 242.247 152.954,237.505 147.665,230.468 138.191 L 228.950 136.148 233.811 137.468 C 236.484 138.193,239.727 139.345,241.016 140.027 M162.558 142.405 L 160.749 144.141 162.121 141.968 C 162.876 140.773,163.689 139.992,163.930 140.232 C 164.170 140.472,163.552 141.450,162.558 142.405 M105.681 145.580 C 103.594 147.533,100.846 149.914,99.576 150.873 C 98.305 151.831,99.902 150.132,103.125 147.097 C 106.348 144.062,109.095 141.680,109.231 141.804 C 109.366 141.928,107.769 143.627,105.681 145.580 M214.633 150.781 C 219.017 156.783,230.758 170.022,239.976 179.357 C 246.682 186.148,247.586 187.367,246.558 188.220 C 244.815 189.667,244.816 189.667,232.390 177.398 C 217.898 163.090,212.520 155.657,210.586 147.266 C 209.958 144.540,210.275 144.816,214.633 150.781 M179.258 164.246 C 194.585 184.214,200.905 191.643,210.835 201.367 C 219.248 209.606,220.330 210.938,218.610 210.938 C 215.746 210.938,200.338 195.615,175.793 168.359 C 168.328 160.069,167.084 157.864,166.699 152.239 L 166.365 147.368 168.534 150.234 C 169.727 151.811,174.553 158.116,179.258 164.246 M121.039 164.054 C 128.949 174.096,136.909 180.646,158.398 194.794 C 174.834 205.614,177.125 207.604,166.602 201.916 C 136.387 185.586,117.471 169.064,112.620 154.766 C 111.141 150.408,111.611 150.162,113.921 154.085 C 115.117 156.116,118.320 160.603,121.039 164.054 M162.877 156.589 C 160.023 160.330,159.638 160.124,162.213 156.234 C 163.356 154.507,164.451 153.253,164.646 153.448 C 164.842 153.644,164.045 155.057,162.877 156.589 M345.304 154.471 C 347.297 156.177,347.325 157.813,345.361 157.813 C 344.335 157.813,343.885 158.310,343.963 159.355 C 344.090 161.031,345.773 162.088,346.484 160.938 C 346.727 160.545,347.439 160.422,348.067 160.663 C 348.696 160.904,349.025 161.401,348.799 161.766 C 348.572 162.132,347.871 162.234,347.241 161.992 C 346.582 161.739,346.089 162.003,346.082 162.612 C 346.072 163.479,345.951 163.485,345.418 162.643 C 345.059 162.078,344.098 161.489,343.281 161.336 C 340.947 160.897,340.927 160.864,342.578 160.185 L 344.141 159.543 342.578 158.930 C 341.719 158.593,340.771 157.950,340.472 157.501 C 340.173 157.053,339.684 156.931,339.384 157.230 C 339.085 157.530,339.212 158.223,339.666 158.770 C 340.475 159.745,340.625 160.198,340.625 161.661 C 340.625 162.060,341.064 162.537,341.602 162.721 C 342.139 162.906,341.963 162.965,341.212 162.852 C 340.460 162.739,339.650 162.963,339.410 163.351 C 339.171 163.738,337.795 163.969,336.352 163.863 C 333.529 163.657,333.429 162.952,336.200 162.794 C 339.457 162.608,339.844 162.494,339.844 161.719 C 339.844 161.289,339.316 160.938,338.672 160.938 C 338.027 160.938,337.500 160.790,337.500 160.611 C 337.500 160.431,337.264 159.670,336.977 158.920 C 336.601 157.941,336.733 157.729,337.445 158.169 C 338.235 158.657,338.249 158.431,337.515 157.059 C 336.461 155.089,336.491 155.030,339.091 153.992 C 341.953 152.850,343.555 152.973,345.304 154.471 M340.687 154.492 C 340.653 155.029,340.098 155.469,339.453 155.469 C 338.809 155.469,338.281 155.833,338.281 156.277 C 338.281 156.830,338.752 156.834,339.766 156.292 C 340.889 155.690,341.358 155.779,341.694 156.655 C 341.939 157.292,342.522 157.813,342.990 157.813 C 343.459 157.813,343.641 157.488,343.396 157.090 C 343.150 156.693,343.536 156.254,344.253 156.114 C 345.429 155.884,345.415 155.745,344.112 154.688 C 343.283 154.014,342.918 153.931,343.256 154.492 C 343.619 155.097,343.404 155.469,342.689 155.469 C 342.055 155.469,341.359 155.029,341.142 154.492 C 340.827 153.711,340.736 153.711,340.687 154.492 M322.656 156.763 C 322.656 158.312,320.513 158.951,319.139 157.811 C 317.617 156.548,318.255 155.664,320.689 155.664 C 321.859 155.664,322.656 156.110,322.656 156.763 M317.843 158.240 C 318.949 160.667,318.962 160.938,317.969 160.938 C 317.539 160.938,317.176 160.322,317.163 159.570 C 317.140 158.345,317.016 158.364,315.968 159.751 C 314.836 161.248,314.810 161.236,315.154 159.360 C 315.349 158.294,315.535 157.158,315.567 156.836 C 315.693 155.560,316.986 156.357,317.843 158.240 M336.144 156.717 C 336.848 157.421,335.879 159.431,335.074 158.934 C 334.690 158.696,334.375 159.050,334.375 159.720 C 334.375 161.174,333.477 161.289,332.188 160.000 C 331.458 159.271,331.250 159.343,331.250 160.326 C 331.250 161.020,331.689 161.766,332.227 161.983 C 332.810 162.218,332.653 162.401,331.836 162.438 C 331.035 162.474,330.464 161.933,330.457 161.133 C 330.447 159.964,330.335 159.936,329.688 160.938 C 329.212 161.674,328.926 161.757,328.918 161.160 C 328.904 160.022,331.783 158.348,332.740 158.939 C 333.112 159.169,333.599 158.658,333.822 157.804 C 334.223 156.273,335.229 155.802,336.144 156.717 M114.063 161.912 C 120.394 173.106,139.764 189.311,159.603 200.013 C 166.407 203.683,166.859 204.188,162.695 203.475 C 133.998 198.561,127.486 195.285,115.953 179.961 C 110.241 172.372,109.319 169.720,109.916 162.597 C 110.482 155.850,110.621 155.827,114.063 161.912 M231.599 178.972 C 244.688 191.846,243.936 190.520,239.519 192.933 L 236.069 194.817 233.074 192.573 C 221.478 183.887,212.500 169.629,212.500 159.898 C 212.500 157.703,212.706 157.851,216.364 162.684 C 218.489 165.491,225.345 172.821,231.599 178.972 M352.321 160.126 C 352.953 160.525,353.169 161.135,352.800 161.481 C 352.431 161.827,351.972 161.668,351.779 161.128 C 351.587 160.588,351.108 160.345,350.715 160.588 C 350.322 160.831,350.000 160.657,350.000 160.202 C 350.000 159.190,350.799 159.163,352.321 160.126 M169.154 166.566 C 170.349 168.373,174.252 173.459,177.826 177.870 C 185.534 187.382,187.395 190.230,190.560 197.362 L 192.944 202.734 189.734 199.219 C 176.903 185.165,167.466 171.882,166.839 166.992 C 166.257 162.458,166.416 162.429,169.154 166.566 M225.152 187.177 C 228.291 190.198,231.700 193.244,232.728 193.947 L 234.597 195.225 230.150 199.289 C 227.705 201.524,225.179 204.368,224.537 205.608 C 223.896 206.849,223.029 207.652,222.610 207.393 C 222.192 207.135,222.037 206.620,222.266 206.250 C 222.494 205.880,222.324 205.356,221.888 205.086 C 221.451 204.816,221.094 204.984,221.094 205.459 C 221.094 205.935,219.698 205.202,217.992 203.831 C 216.286 202.460,215.110 200.983,215.378 200.548 C 215.647 200.114,215.519 199.973,215.094 200.236 C 214.669 200.499,212.847 199.211,211.044 197.375 L 207.767 194.036 209.766 185.885 C 210.866 181.402,211.976 175.593,212.234 172.975 L 212.703 168.215 216.074 174.950 C 218.691 180.176,220.723 182.913,225.152 187.177 M114.725 180.705 C 116.448 182.938,120.197 187.139,123.055 190.039 L 128.252 195.313 125.046 195.313 C 120.713 195.313,112.452 188.120,109.345 181.641 C 106.767 176.264,107.570 168.756,110.177 173.869 C 110.955 175.396,113.002 178.472,114.725 180.705 M312.965 176.259 C 312.612 177.181,312.816 177.390,313.728 177.040 C 314.528 176.733,314.849 176.912,314.624 177.539 C 314.431 178.076,314.566 179.085,314.923 179.782 C 315.516 180.940,307.451 184.274,306.458 183.281 C 305.524 182.347,309.814 175.815,311.095 176.222 C 311.868 176.467,312.500 176.293,312.500 175.834 C 312.500 175.375,312.713 175.000,312.974 175.000 C 313.235 175.000,313.231 175.566,312.965 176.259 M178.520 191.016 L 183.667 197.266 178.531 191.797 C 173.480 186.419,168.459 179.628,167.457 176.819 C 167.177 176.034,168.393 177.500,170.160 180.078 C 171.927 182.656,175.689 187.578,178.520 191.016 M109.514 188.755 C 111.371 190.782,114.454 193.438,116.364 194.658 C 118.274 195.877,119.272 196.875,118.581 196.875 C 115.170 196.875,103.838 184.731,103.937 181.181 C 103.954 180.575,104.456 181.201,105.053 182.574 C 105.650 183.947,107.658 186.728,109.514 188.755 M277.341 189.477 C 276.252 198.236,276.014 198.618,270.567 200.311 C 263.565 202.487,257.157 206.197,251.874 211.133 C 249.230 213.604,246.716 215.625,246.287 215.625 C 245.129 215.625,236.719 211.812,236.719 211.287 C 236.719 209.377,240.027 206.611,250.651 199.638 C 257.383 195.219,263.923 190.505,265.185 189.162 C 266.447 187.818,267.893 186.719,268.397 186.719 C 268.902 186.719,271.209 185.701,273.525 184.458 C 278.685 181.687,278.362 181.262,277.341 189.477 M209.357 209.918 C 210.422 210.908,210.938 211.719,210.504 211.719 C 209.324 211.719,199.905 202.964,196.468 198.673 C 194.142 195.768,195.038 196.410,200.443 201.520 C 204.281 205.148,208.293 208.928,209.357 209.918 M133.203 198.887 C 135.352 199.555,144.316 201.802,153.125 203.880 C 174.416 208.904,193.347 216.288,190.987 218.649 C 190.774 218.862,190.227 218.665,189.773 218.211 C 189.295 217.732,187.082 217.536,184.513 217.743 C 179.698 218.132,177.564 218.992,182.031 218.744 C 183.535 218.660,185.645 218.682,186.719 218.792 C 191.328 219.264,174.253 220.152,161.719 220.092 C 151.412 220.042,149.585 219.904,154.297 219.531 C 158.780 219.176,155.246 218.947,141.797 218.720 L 123.047 218.404 141.016 217.969 L 158.984 217.534 144.531 217.259 C 136.582 217.107,127.617 216.717,124.609 216.392 C 119.920 215.885,120.365 215.834,127.734 216.032 L 136.328 216.264 130.199 215.358 C 126.828 214.861,124.251 214.277,124.473 214.063 C 124.695 213.848,122.356 213.715,119.275 213.768 L 113.672 213.864 118.750 213.317 L 123.828 212.770 117.578 212.494 L 111.328 212.219 117.188 211.773 L 123.047 211.328 118.750 210.604 L 114.453 209.880 117.578 209.348 L 120.703 208.815 117.447 208.705 C 112.691 208.543,110.722 207.683,113.281 206.885 C 114.661 206.455,114.227 206.369,111.806 206.594 L 108.377 206.912 110.813 205.430 C 122.296 198.447,127.187 197.018,133.203 198.887 M111.523 209.132 C 110.771 209.329,109.541 209.329,108.789 209.132 C 108.037 208.936,108.652 208.775,110.156 208.775 C 111.660 208.775,112.275 208.936,111.523 209.132 M220.467 216.365 C 220.282 218.920,220.509 222.096,220.972 223.423 C 221.434 224.749,221.505 225.645,221.129 225.413 C 220.753 225.180,220.311 225.395,220.146 225.890 C 219.946 226.491,216.480 226.869,209.728 227.026 C 202.761 227.188,200.704 227.062,203.125 226.621 C 205.059 226.268,206.959 226.165,207.347 226.392 C 207.736 226.618,207.822 226.428,207.538 225.969 C 207.254 225.509,207.463 224.955,208.003 224.738 C 210.112 223.888,204.799 224.305,199.663 225.393 C 196.685 226.024,194.108 226.400,193.936 226.228 C 193.765 226.056,196.377 225.336,199.742 224.627 C 203.106 223.918,206.562 223.001,207.422 222.589 C 208.960 221.852,207.623 221.930,199.219 223.068 C 197.341 223.323,200.156 221.607,208.203 217.592 C 214.648 214.377,220.120 211.740,220.362 211.732 C 220.605 211.725,220.652 213.809,220.467 216.365 M239.745 220.972 C 239.342 221.120,238.145 220.672,237.084 219.977 C 234.975 218.595,234.735 218.846,235.965 221.145 C 236.410 221.976,236.568 222.656,236.316 222.656 C 235.530 222.656,233.594 217.340,233.594 215.184 C 233.594 213.229,233.759 213.312,237.035 216.917 C 238.928 218.999,240.147 220.824,239.745 220.972 M163.867 219.315 C 165.264 219.488,167.549 219.488,168.945 219.315 C 170.342 219.142,169.199 219.000,166.406 219.000 C 163.613 219.000,162.471 219.142,163.867 219.315 M138.509 220.109 C 135.841 220.261,131.271 220.262,128.353 220.111 C 125.435 219.961,127.617 219.836,133.203 219.835 C 138.789 219.833,141.177 219.957,138.509 220.109 M181.845 220.849 C 181.098 221.045,179.692 221.052,178.720 220.865 C 177.748 220.678,178.359 220.518,180.078 220.510 C 181.797 220.501,182.592 220.654,181.845 220.849 M153.286 221.675 C 150.152 221.823,145.230 221.822,142.349 221.672 C 139.467 221.522,142.031 221.401,148.047 221.402 C 154.063 221.403,156.420 221.526,153.286 221.675 M174.819 221.652 C 173.645 221.830,171.535 221.834,170.131 221.660 C 168.727 221.486,169.688 221.340,172.266 221.336 C 174.844 221.331,175.993 221.474,174.819 221.652 M154.492 223.195 C 153.740 223.391,152.510 223.391,151.758 223.195 C 151.006 222.998,151.621 222.838,153.125 222.838 C 154.629 222.838,155.244 222.998,154.492 223.195 M163.100 224.777 C 161.926 224.955,159.817 224.959,158.412 224.785 C 157.008 224.611,157.969 224.465,160.547 224.461 C 163.125 224.456,164.274 224.599,163.100 224.777 M268.433 241.525 C 270.259 244.479,268.863 244.531,187.787 244.531 C 141.596 244.531,109.287 244.240,109.028 243.821 C 108.786 243.430,108.803 242.551,109.065 241.867 C 109.680 240.267,267.445 239.927,268.433 241.525 M260.491 251.029 C 262.668 253.883,268.275 265.590,269.044 268.884 L 269.530 270.972 254.101 274.626 C 221.420 282.367,210.606 285.509,211.211 287.085 C 211.497 287.830,210.100 288.048,205.470 287.980 C 202.104 287.931,199.409 287.579,199.480 287.198 C 199.642 286.330,195.276 285.032,193.905 285.542 C 193.345 285.750,193.102 285.572,193.365 285.147 C 193.642 284.699,192.775 284.375,191.296 284.375 C 187.169 284.375,189.485 283.271,201.932 279.304 C 220.713 273.319,222.276 272.416,218.335 269.834 C 216.297 268.499,205.692 265.699,202.493 265.652 C 199.051 265.601,201.570 267.012,206.623 267.965 C 209.762 268.558,211.511 269.235,211.200 269.739 C 210.904 270.218,211.075 270.320,211.613 269.987 C 212.655 269.344,217.969 270.888,217.969 271.834 C 217.969 272.653,210.950 274.623,209.094 274.325 C 208.114 274.167,207.834 274.403,208.234 275.050 C 208.674 275.761,208.275 275.871,206.692 275.473 C 205.413 275.152,204.740 275.234,205.014 275.677 C 205.268 276.089,204.797 276.241,203.949 276.019 C 203.111 275.800,200.818 276.235,198.852 276.986 C 196.886 277.736,195.112 278.185,194.910 277.983 C 194.708 277.781,197.508 276.631,201.133 275.426 C 208.352 273.027,210.067 271.391,206.019 270.762 C 192.449 268.655,171.234 268.110,161.478 269.619 C 150.328 271.343,142.957 275.679,152.024 275.180 C 164.264 274.506,191.412 274.693,192.175 275.456 C 192.782 276.063,191.747 276.581,188.503 277.291 C 186.018 277.834,181.523 279.246,178.516 280.428 C 174.131 282.151,172.041 282.530,167.969 282.340 C 162.727 282.096,163.093 282.325,170.117 283.689 C 175.503 284.735,175.297 285.389,168.799 287.872 C 164.746 289.420,163.218 290.419,162.744 291.828 C 162.111 293.707,162.084 293.696,153.935 288.580 C 140.492 280.140,123.444 273.026,112.854 271.438 C 110.366 271.065,109.375 270.552,109.375 269.638 C 109.376 266.668,113.468 257.966,118.409 250.425 L 119.711 248.438 189.113 248.438 L 258.514 248.438 260.491 251.029 M210.547 264.082 C 220.649 266.131,228.238 267.335,228.622 266.951 C 229.574 265.998,214.950 263.230,209.766 263.380 C 207.707 263.440,207.802 263.526,210.547 264.082 M269.406 276.758 C 269.321 279.569,269.182 280.061,268.966 278.320 C 268.793 276.924,268.301 275.781,267.873 275.781 C 267.445 275.781,267.310 275.434,267.573 275.009 C 267.846 274.566,267.533 274.435,266.837 274.702 C 266.171 274.958,265.625 275.435,265.625 275.763 C 265.625 276.091,265.010 276.360,264.258 276.361 C 262.109 276.364,259.375 277.449,259.375 278.300 C 259.375 278.725,259.884 278.878,260.507 278.639 C 261.200 278.373,261.495 278.580,261.268 279.172 C 261.064 279.704,260.119 280.198,259.169 280.269 C 257.959 280.361,257.756 280.205,258.492 279.751 C 259.298 279.252,259.321 278.965,258.594 278.516 C 257.867 278.067,257.893 277.773,258.706 277.258 C 259.531 276.735,259.463 276.584,258.398 276.574 C 257.646 276.568,257.031 276.891,257.031 277.292 C 257.031 277.693,256.152 277.862,255.078 277.667 C 252.648 277.227,252.543 277.918,254.883 278.953 C 256.560 279.696,256.551 279.710,254.688 279.255 C 253.613 278.993,252.031 278.661,251.172 278.517 C 250.312 278.373,249.434 278.198,249.219 278.129 C 248.916 278.031,266.254 273.327,268.945 272.776 C 269.268 272.710,269.475 274.502,269.406 276.758 M119.864 274.989 C 121.288 275.498,121.277 275.551,119.668 275.972 C 118.732 276.217,118.164 276.098,118.404 275.708 C 118.645 275.319,118.206 274.995,117.429 274.988 C 116.652 274.981,115.488 274.619,114.844 274.183 C 113.628 273.360,116.676 273.849,119.864 274.989 M247.879 279.453 C 247.599 280.183,247.250 280.421,247.103 279.981 C 246.957 279.542,245.703 279.288,244.317 279.416 C 242.010 279.630,241.962 279.591,243.750 278.965 C 247.063 277.804,248.449 277.968,247.879 279.453 M185.141 281.660 C 184.597 282.314,183.980 282.678,183.770 282.468 C 183.560 282.258,182.701 282.454,181.862 282.903 C 181.022 283.353,180.136 283.521,179.893 283.278 C 179.468 282.853,184.047 280.562,185.447 280.499 C 185.822 280.483,185.684 281.005,185.141 281.660 M145.313 286.348 C 145.313 287.125,144.068 286.625,142.188 285.092 L 140.234 283.500 142.773 284.739 C 144.170 285.420,145.313 286.144,145.313 286.348 " stroke="none" fill="#000000" fill-rule="evenodd"></path></g></svg>